<svg xmlns="http://www.w3.org/2000/svg" viewBox="0 0 178.02 60.94"><defs><style>.cls-1{fill:#980101;}.cls-2{fill:#9a0707;}</style></defs><title>logo-dvloper</title><g id="Layer_2" data-name="Layer 2"><g id="Layer_1-2" data-name="Layer 1"><path class="cls-1" d="M7.82,5c.39-.25.81-.08,1.22-.11s.47-.07.42-.41c.14,0,.22.09.32.17s.15,0,.17-.06.14-.14,0-.2-.41-.24-.51.11a1.09,1.09,0,0,0-.87-.3c-.09,0-.21,0-.2-.13s-.07-.25.12-.26.35-.13.3-.27-.28-.14-.46,0a3.55,3.55,0,0,1-.5.15c.29-.26.58-.39.58-.76,0-.07.25-.13.42-.15s.37-.11.31-.37-.23-.16-.41-.11a3.47,3.47,0,0,1-.56,0c.16-.17.6,0,.44-.33a.65.65,0,0,0-1-.17c.24-.35.51-.47.67-.72A.4.4,0,0,1,9,1a.64.64,0,0,0,.9-.09c.21-.21.47-.63.88-.08.25.33.78.22,1.19.18.66,0,.66-.07.65.59a4.51,4.51,0,0,0-.52,0c-.18,0-.43.15-.29.36s.51.15.75.09.2-.29.05-.47a.61.61,0,0,0,.53-.16,1,1,0,0,1,.66-.21c.31.05.67.29.71-.32,0-.12.28-.06.43,0a3.2,3.2,0,0,1,.9.55,8.46,8.46,0,0,0,3.68,1.44c.29,0,.67,0,.74.46,0,.08.11.13.24.08A1.21,1.21,0,0,1,22,3.76a.5.5,0,0,0,.31.25c.18.06.3.13.3.37s.27.37.46.23c.46-.34.73.16,1.09.21s.76.24.59.79c-.05.17.14.25.3.22.51-.13.75.2,1,.59h-.42c-.15,0-.25.1-.23.25,0,.32.45.25.57.51,0,.05.22,0,.35-.07a1,1,0,0,1,1.43.2c.25.38.66.61.85,1,.08.17.14.31-.05.4-.36.17-.52.59-.95.72s-.52.51-.72.81-.23.3-.41.07-.42-.12-.63-.14a.2.2,0,0,0-.13,0,.89.89,0,0,1-1,.43,7,7,0,0,1-1.12,0c-.19,0-.39-.13-.38-.27s.26-.13.41-.12.25.13.31-.07-.15-.11-.2-.2a.51.51,0,0,0-.64-.21c-.2.06-.32.08-.45-.1s0-.12-.14-.05c-.46.42-.83,0-1.33-.13.24-.16.61-.1.46-.53.07.49.29.62.72.51s1.07-.2,1.61-.29a.32.32,0,0,0,0-.46.27.27,0,0,0-.4.09c.06.14.38,0,.3.29a3.13,3.13,0,0,1-1.69,0c.07-.11.12-.09.18-.07s.41.15.56-.06,0-.27-.12-.37-.58-.11-.64,0c-.16.41-.31.14-.49.07-.34-.13-.68-.23-1-.34a.25.25,0,0,1,.28,0c.14.08.28.13.34-.06s.1-.34-.13-.49a1.86,1.86,0,0,0-1.05-.25c-.49,0-.88-.34-1.38-.41s-.46.09-.28.49a2.91,2.91,0,0,1-.7-.28,1,1,0,0,0-1.22.09c-.09.07-.17.13-.3,0a6.33,6.33,0,0,0-.54-.36S15.59,7,15.59,7s.37-.23.07-.34a2.24,2.24,0,0,0-.86,0c-.12,0-.18.12-.18.25s.06.27-.14.31c-.17-.14.23-.33-.06-.48a.6.6,0,0,0-.67,0,.93.93,0,0,1-.63.15c-.14,0-.27,0-.33.14s.08.19.15.27a2.72,2.72,0,0,0,.24.24c.2.18.28.34-.07.42-.15,0-.27.09-.22.24s.19.17.32.15.12-.07.18-.07.42-.25.51-.09a.75.75,0,0,1-.05.72,2.78,2.78,0,0,1-.7.71,1.36,1.36,0,0,0-.54.83c-.09.41.1.37.34.28a.75.75,0,0,1,.49,0,.37.37,0,0,0-.38.45c0,.28.2.29.4.28s.18.06.18.2-.14.1-.21.09-.29.08-.42.19a3,3,0,0,1-.84.7c-.3.14-.25.37.11.58v0c-.13,0-.31-.08-.38.09s.16.25.26.33a1.3,1.3,0,0,0,1.21.08h0c0,.15.09.32-.26.33s-.82,0-.85.51.55.34.8.56a1.74,1.74,0,0,0-.63.94c-.05.18-.14.41-.42.38s-.37,0-.4.21A.32.32,0,0,0,12,17c.19.05.43.11.53-.17a1,1,0,0,1,.08-.22.35.35,0,0,1,.42-.16c.18.06.08.22.08.33s0,.29,0,.44a1.13,1.13,0,0,0-1.33.73c-.06.27-.24.47-.31.73A.36.36,0,0,1,11,19a.37.37,0,0,0-.4.22c-.09.19.08.23.22.29a.24.24,0,0,1,.12.14c0,.21,0,.43.33.43a.5.5,0,0,0,.53-.41s0,0,.07-.06c.15.14,0,.25-.05.38s-.11.13-.07.26.39,0,.27.24a5.84,5.84,0,0,1-.45.76,12.65,12.65,0,0,1-.81,1c-.16.18-.13.35,0,.43a2,2,0,0,0,1.11.27c0,.43,0,.89-.54,1.13,0,0-.11.08-.1.1.17.59-.37.72-.65,1a1.7,1.7,0,0,0-.47,1.64c.07.26,0,.43-.34.43s-.68-.14-1-.11-.54.05-.53.34.36.27.56.23a2,2,0,0,1,.88,0c.22.06.31.14.29.35a.36.36,0,0,0,.18.37.86.86,0,0,1,.35,1.19c-.34-.34-.52-.35-.84,0A1.2,1.2,0,0,1,9,30c-.31.06-.38.32-.46.52s.18.28.3.41a1.2,1.2,0,0,0,1.15.44c.12,0,.19.09.29.16-.34,0-.46.13-.19.43s.3.37-.18.51a7.06,7.06,0,0,1-1.7.17c-.12,0-.41,0-.28.16s-.35.7.3.61a1.55,1.55,0,0,1,.43,0c.53.08.57.2.23.61s-.21.88-.29,1.32A7.15,7.15,0,0,1,8,37a4.45,4.45,0,0,1-1.1,1.22l-.08-.07c.07-.31.1-.65.52-.71a.15.15,0,0,0,.09-.28c-.35-.12-.46-.67-1-.51.25-.16,0-.63.43-.66,0,0,0-.36,0-.55-.16,0-.38.23-.45-.11A.23.23,0,0,1,6.6,35c.12-.06.18-.07.26.09s.28.2.36,0a.72.72,0,0,1,.81-.5c.12,0,.3.06.26-.16s-.16,0-.25,0a.7.7,0,0,0-.29,0,.23.23,0,0,1-.22-.16c0-.11.06-.18.15-.22s.24-.06.36-.11a.25.25,0,0,0,.16-.27c0-.15-.14-.11-.23-.11a.68.68,0,0,1-.52-.18c-.08-.06-.25,0-.14-.2s-.14-.21-.24-.28-.22,0-.24-.16a2.21,2.21,0,0,1,.62-1.14c.16-.08.39-.11.36-.39s.14-.24.3-.21.16.06.18-.06,0-.17-.09-.19c-.6-.12-.73-.58-.77-1.08,0-.24-.08-.32-.31-.29s-.28,0-.26-.25.09-.28.27-.23.55,0,.56-.26-.33-.19-.53-.23a.3.3,0,0,1-.11-.06c.51.11.54-.58,1-.56.06,0,.06-.15,0-.21a.48.48,0,0,0-.33-.25c-.21,0-.59-.08-.57-.18,0-.27,0-.63.35-.79,0,0,.06.05.05.07-.12.36.2.33.35.3s.41-.08.35-.29-.27-.22-.48-.11-.17.16-.28,0c.37-.1.39-.55.73-.72.18-.09-.08-.27-.16-.31-.47-.22-.19-.69-.36-1,0-.06,0-.11.12-.1a.13.13,0,0,1,.1.06.48.48,0,0,0,.61.19c.12-.07.26-.16.23-.34S8.57,24,8.46,24a1.77,1.77,0,0,0-.32,0c0-.24.3-.18.46-.27a1.18,1.18,0,0,0-.78-.59c-.09,0-.27,0-.27-.2s0-.21.2-.24.14-.19.16-.32a2.57,2.57,0,0,1,.29-.94.47.47,0,0,0-.08-.64c0-.07-.22-.18-.13-.31s.22-.09.37,0a1.29,1.29,0,0,0,.84-.09c.06,0,.15-.11.15-.17s-.13-.1-.22-.1h-1V20l.38,0c.11,0,.23,0,.32-.08s-.07-.18-.12-.25-.15-.14,0-.25.12-.13.24-.06a.37.37,0,0,0,.27.05c.11,0,.28-.06.3-.18s-.11-.17-.23-.21-.47-.22-.4-.43.37-.3.65-.16c.09.05.26.18.39-.06s-.1-.23-.17-.33a.85.85,0,0,0-.56-.37h1.3c.16,0,.37,0,.38-.19s-.21-.2-.37-.2H9.81c-.05-.11.3-.31,0-.25s-.82-.25-1,.27c-.05.12-.19.1-.34,0,.24-.25.37-.59.79-.62.23,0,.23-.26.35-.48a.52.52,0,0,0-.46.25.35.35,0,0,1-.54.08c-.19-.15-.27-.35,0-.56s.39-.41.61-.58.48-.06.49.25v.49c.15-.36.31-.52.65-.53a.61.61,0,0,0,.51-.87.28.28,0,0,0-.2-.18.23.23,0,0,0-.27.16c-.06.46-.34.38-.58.22a2.29,2.29,0,0,0-1.23-.41c-.07-.33.35-.48.3-.68s-.42-.33-.3-.67h.69l-.11-.35c.2-.06.23.27.42.14s.3-.13.36-.29a.13.13,0,0,0-.06-.11c-.23-.1-.58-.14-.68,0-.33.4-.45,0-.65-.11l.41,0a2.12,2.12,0,0,0-.25-1.17c-.25-.39-.33-.81-1-.58A.8.8,0,0,0,8.27,10c0-.28-.43-.12-.67-.45.77.35,1.3-.05,1.87-.26.11,0,.27-.06.25-.15a.36.36,0,0,0-.33-.25c-.18,0-.32.19-.48.09.12-.8.85-.76,1.49-1-.53,0-.89-.3-1.33-.22-.05,0-.21,0-.09-.19a1.26,1.26,0,0,0,.28,0c.44,0,.83.31,1.29.25.15,0,.36,0,.35-.22s-.2-.17-.35-.16a1.31,1.31,0,0,1-.92-.22,3,3,0,0,0,1.17-.08c.16,0,.32-.15.29-.32s-.27-.18-.3-.15c-.34.29-.64.06-1,0-.12,0-.32-.05-.38,0a.42.42,0,0,1-.6.09c-.14-.07-.28,0-.37.19s.07.28.17.37.28.07.34.22c-.23,0-.54.08-.68-.1a4.14,4.14,0,0,1-.49-1c0-.11.08-.19.2-.22.32-.07.44-.17.15-.48s-.26-.4.2-.5.63-.09,1-.13A4.27,4.27,0,0,0,7.81,5ZM9,25.94c0,.16-.53.31,0,.49.21.07.45-.07.45-.23S9.2,25.91,9,26c.11-.2.28-.08.43-.09s.23-.16.33-.25c-.1-.09-.16-.23-.33-.25a.57.57,0,0,0-.62.25c-.1.21-.52.08-.43.3S8.77,25.9,9,25.94ZM19.46,6.22c-.09.27-.35.28-.48.45s-.13.2,0,.29.16,0,.23-.09.24-.3.48-.27.42,0,.41-.25-.3-.12-.48-.15l.08-.1L19.78,6c.65-.25,1.4-.32,1.77-1,.07-.14.25-.22.12-.41a.46.46,0,0,0-.45-.21c-.26,0-.25.21-.27.38s-.06.29-.17.19c-.31-.26-.72-.08-1-.28-.15-.09-.3-.15-.45,0a.37.37,0,0,0-.08.48c.06.15.08.23,0,.32a5.21,5.21,0,0,1-2.65.81c-.25,0-.31-.12-.24-.29a.38.38,0,0,0-.43-.56c-.54.25-1.18-.27-1.66.24,0,0-.11,0-.13,0-.28-.4-1-.22-1.11-.86,0-.2-.24-.18-.41-.17a.51.51,0,0,0-.42.35c-.09.17.18.18.24.28.19.32.79.35.64.9,0,0,.1.12.19.12s.14,0,.16-.12.71-.33.83-.17a1.24,1.24,0,0,0,1.54.51.23.23,0,0,1,.35.2c0,.35.27.33.54.37.49.08.91-.32,1.41-.12,0-.26-.25-.63.09-.6S19,6.21,19.46,6.22Zm-10,5c-.11,0-.21,0-.27.09s0,.14.08.18.16.27-.08.31c-.08,0-.15,0-.08.13s-.08.47.2.54a.72.72,0,0,0,.71-.27c.28-.3.24-.74.54-1a.15.15,0,0,0,0-.22c-.08-.07-.17,0-.26,0C10.05,11,9.83,11.33,9.5,11.18Zm1.85,1c.46,0,.65-.24.63-.84,0-.29-.26-.24-.44-.23-.35,0-.76,0-.89.44S11,12.15,11.35,12.15ZM25.86,9.51s.08,0,.13,0a12.61,12.61,0,0,0,.87-.92c.08-.1.06-.31-.21-.3a2.35,2.35,0,0,0-1.23.88C25.38,9.39,25.47,9.55,25.86,9.51ZM14,3.79c-.35,0-.6.31-.42.56a1.66,1.66,0,0,0,.88.5c.16.05.28-.12.32-.24S14.23,3.79,14,3.79ZM8.1,29c.33.16.39-.31.68-.28a.23.23,0,0,0,.29-.23.48.48,0,0,0-.2-.44c-.17-.12-.29,0-.41.08s-.36.3-.55.45a.32.32,0,0,0-.09.35C7.86,29.13,8,29,8.1,29Zm.14-7a1,1,0,0,0,.88-.18.43.43,0,0,0,0-.76.41.41,0,0,0-.52,0c-.29.22-.06.41,0,.63C8.5,21.8,8.29,21.81,8.24,22ZM16.08,4.47h-.35c-.18,0-.34,0-.33.26s.18.25.35.23a1.25,1.25,0,0,1,.79.14c.18.1.28,0,.37-.09s0-.21-.07-.28C16.65,4.43,16.32,4.47,16.08,4.47Zm-4.63,8.92a4.39,4.39,0,0,0-1.79-.15.54.54,0,0,0,.23.37A1.28,1.28,0,0,0,11.45,13.39Zm-1.2,2.35a1,1,0,0,1,.2.51c0,.19.23.21.38.16a.5.5,0,0,0,.39-.51c0-.24-.2-.14-.32-.15S10.51,15.74,10.25,15.74Zm4.82-13.6a.36.36,0,0,0-.44.33.36.36,0,0,0,.42.35c.2,0,.42,0,.44-.29S15.31,2.15,15.07,2.14Zm-7.18,30c.17-.06.52.14.56-.19,0-.15-.33-.19-.54-.21s-.12-.1-.19-.12-.28.06-.39.17-.13.12-.09.2a.31.31,0,0,0,.33.15C7.66,32.16,7.76,32.17,7.89,32.17ZM18.11,3.65c-.41-.16-.56-.53-1-.55-.13,0-.27-.14-.35,0s.1.28.21.32A1.87,1.87,0,0,0,18.11,3.65ZM10,5.83c-.11-.25-.37-.25-.58-.33s-.34,0-.48.14,0,.16,0,.16c.28,0,.52.25.81.22A.24.24,0,0,0,10,5.83Zm.84,3.35a3.4,3.4,0,0,0,.42.56c.11.1.29.28.44.13s0-.31-.1-.45A.71.71,0,0,0,10.79,9.18ZM18.86,3.4c-.18,0-.42.05-.42.2a.35.35,0,0,0,.38.39.45.45,0,0,0,.43-.34C19.26,3.51,19.06,3.37,18.86,3.4ZM8.35,1.49a2.58,2.58,0,0,0,1.45.09C9.32,1.67,8.92.94,8.35,1.49Zm1,12.43v.14a1.35,1.35,0,0,1,.57.11,2.17,2.17,0,0,0,.72,0,.19.19,0,0,0,.14-.11s-.06-.13-.09-.14ZM25.73,7.29a6,6,0,0,1,.36.57c.09.2.25.08.38.1s.11-.08.11-.16a.26.26,0,0,0-.17-.31C26.23,7.42,26,7.38,25.73,7.29ZM9,24.78c-.16,0-.35,0-.33.19s.19.31.42.3.42-.05.4-.21S9.24,24.81,9,24.78ZM10.73,5.54c-.16,0-.37,0-.37.19a.33.33,0,0,0,.37.3.34.34,0,0,0,.37-.3C11.1,5.52,10.89,5.54,10.73,5.54Zm2.43-1.46c.23,0,.29-.12.3-.31s-.28-.11-.34-.25c-.09.08-.32.07-.24.28S13,4.14,13.16,4.08Zm-2.48,9c.16,0,.41.05.41-.19s-.31-.2-.37-.17-.43,0-.43.21S10.53,13.11,10.68,13.12Zm.53,7.58a.25.25,0,0,0-.29.29c0,.14,0,.2.19.2a.36.36,0,0,0,.38-.3C11.51,20.76,11.36,20.69,11.21,20.7ZM11.6,2.24c0-.25-.14-.19-.26-.2S11,2,11,2.23s.15.19.3.2S11.57,2.38,11.6,2.24ZM8.41,23.12c.23,0,.46.11.65-.1,0,0,0-.15,0-.16a.6.6,0,0,0-.61.15S8.41,23,8.41,23.12ZM23.66,5.23c.11.22.36.17.52.27s.1,0,.13-.09.05-.14,0-.15S23.89,5,23.66,5.23Zm-12,5a.24.24,0,0,0-.23-.22.21.21,0,0,0-.24.18c0,.13.09.2.21.2S11.69,10.46,11.7,10.23Z"/><path class="cls-1" d="M120.75,28.27c.3.09.51-.29.83-.16,0,.1-.22.09-.15.23a1.05,1.05,0,0,0,.63.61c.27.07.47-.15.64-.34a.12.12,0,0,0-.09-.22c-.33.22-.53-.25-.84-.11a1,1,0,0,0,.63-.94c0-.15-.14-.16-.2-.12s-.3.06-.45.13l.42.19v.06h-.75c-.1,0-.38.08-.14-.19-.23-.12-.46-.31-.72-.14s-.45.08-.64-.17-.25-.46,0-.66.46.08.62-.18a.51.51,0,0,1,.68-.16.44.44,0,0,0,.63-.21c-.27-.37-.69-.16-1-.3-.16-.07-.25.18-.35.33s-.14,0-.22.06a.41.41,0,0,0-.32.47c-.29-.19-.42-.6-.94-.5-.22.05-.53-.4-.82-.63a.47.47,0,0,1,.48,0,.5.5,0,0,0,.54,0c.13-.07.35-.12.43,0a.35.35,0,0,0,.43.21c.09,0,.2-.12.16-.21s0-.48-.24-.54-.65-.16-.63-.59c0,0,0-.11-.08-.06s-.21,0-.21.16,0,.39-.16.35c-.38-.12-.62.34-1,.18-.19-.08-.21-.2-.2-.37s.08-.17.24-.11.13-.15.17-.24,0-.22-.18-.21a9.44,9.44,0,0,1-1.51-.18,2,2,0,0,1-1-.34A1.59,1.59,0,0,0,117,23a.74.74,0,0,0-.69-.23,1.75,1.75,0,0,1-1.54-.45c-.23-.25-.58-.09-.86-.21s-.19-.16-.18-.3.17,0,.18-.09a.13.13,0,0,0-.07-.1c-.09,0-.12.05-.18.11a.49.49,0,0,1-.42.17c-.22,0-.43,0-.44.33,0,.17-.16.14-.29.16a3.5,3.5,0,0,0-.85.05c-.24.06-.44.1-.55.36s-.28.18-.46.17a.38.38,0,0,0-.43.36c0,.32.21.21.36.21s.26.1.18.3a.7.7,0,0,1-.5.46A2.16,2.16,0,0,0,109,25c-.2.23-.41.37-.61,0s-.46-.16-.62-.34c0-.09,0,0,.09-.06.21,0,.46.1.61-.15,0-.08,0-.14-.12-.15-.27,0-.5-.31-.82-.06s-.61.17-.33.59l-.08.07c-.36.09-.61-.23-.94-.24-.05,0-.16-.11-.11-.18s0-.26.23-.2.34-.14.16-.27c-.4-.29-.14-.61,0-.85s.4-.35.61-.51c.15.09-.2.43.17.38.17,0,.46-.11.41-.31s-.32-.05-.48,0a.09.09,0,1,1,0-.13c.15,0,.28-.09.24-.23s-.21-.18-.36-.16-.21.17-.43,0c.52,0,.76-.39,1-.67.08-.07.32,0,.21-.24a.22.22,0,0,0-.36-.08.55.55,0,0,1-.18.06l-.08-.07c.19-.17,1-.2,1.08,0a.53.53,0,0,1-.3.65c-.29.14-.23.3-.15.54s.27.18.47.16a1.7,1.7,0,0,0,.63-.29c0,.26-.22.36-.36.48-.43.37-.44.36.07.58h-.38a.12.12,0,0,0-.11.13c0,.07,0,.15.08.15s.5.14.4-.29c.15.07.34,0,.45.25s.42,0,.64.05c.41.08.2-.31.35-.44-.3-.13-.59,0-.91,0,.2-.41,1.05.16.91-.69.12.3.29.5.63.4a.33.33,0,0,0,.23-.33c0-.22-.3-.1-.45-.2.08-.24.36-.21.5-.37s.19,0,.27.1-.25.11,0,.22.24-.07.36-.08.57.06.78-.22c-.19-.2-.51.07-.66-.24.22-.06.5,0,.62-.27.1.08.33-.31.36.14,0,.17.48.18.55,0,.28-.64.76-.49,1.16-.29a2.71,2.71,0,0,0,2,.07,4,4,0,0,1,2.29.13,10.47,10.47,0,0,1,5,3.51l.07.14a3.69,3.69,0,0,0-.69.06c-.12,0-.32.07-.33.29a.4.4,0,0,0,.25.33.9.9,0,0,0,.83.06.46.46,0,0,1,.64.22,11.82,11.82,0,0,1,.84,1.76.8.8,0,0,1,0,.88c-.13.18,0,.31.08.46.16.36.26.71-.17,1-.09,0-.26.14-.17.29s.2.16.37.08.57,0,.55.3.37.71-.31.74c-.4,0-.43.4-.33.66a.66.66,0,0,1-.31.88.49.49,0,0,0-.2.4,1,1,0,0,1-1,1,.83.83,0,0,0-.62.3c.25.22.51.42.75.65s.22.51-.13.72a1.79,1.79,0,0,0-1,1.25c-.07.42-.58.63-1,.78-.69.24-1.43.22-2.13.41a.67.67,0,0,0,.73.26c.32,0,.55.07.6.39s-.3.41-.5.47c-.59.2-1.21.32-1.81.49a2.8,2.8,0,0,0-1,.69c-.09.07,0,.37,0,.57s.12.09.22,0,.16-.08.2,0,.32.18.46.12a2.7,2.7,0,0,1,1.12-.19h0a4.14,4.14,0,0,1-1.52.58c-.38.1-.78.31-1.18,0a.25.25,0,0,0-.24,0c-.38.48-.92.24-1.38.26a5.56,5.56,0,0,1-2.46-.32,1.78,1.78,0,0,1,1.53-.25,1.64,1.64,0,0,0-.61.06c.16.31.39.26.59.2s0-.18,0-.27a.64.64,0,0,0,.53-.16c.28-.16.27-.35,0-.53-.1-.07-.23-.17-.34-.16-.66.07-1.28-.23-1.94-.21,0,0-.15.1-.16,0,0-.46-.38-.27-.6-.29s-.42-.08-.22.25c0,.09-.06.18-.15.22a.21.21,0,0,1-.26-.08.9.9,0,0,0-.74-.41c.12-.16.36,0,.38-.21s-.14-.24-.31-.28-.31-.09-.27-.32.22-.15.33-.14c.28,0,.33-.18.34-.36s-.17-.24-.35-.23h-.09c-.69.42-1.29-.08-1.91-.18,0,.78.7,1,1.2,1.39-.19.14-.35.35-.57.23a5.83,5.83,0,0,1-.74-.57s0,0,0-.07c.13-.37.13-.37-.28-.34-.1,0-.1,0-.33-.23.1-.07.24,0,.33-.14s.24-.3-.1-.42-1,0-1.17-.62c.11,0,.24-.07.36,0s.4.19.46-.14a.14.14,0,0,1,.21-.11c.13.07.09.13,0,.19a.15.15,0,0,0,0,.27.53.53,0,0,0,.64-.06c.15-.16.07-.21-.11-.22,0,0,0,0-.07,0,.39-.22.15-.32-.08-.33s-.18-.35-.35-.46a.26.26,0,0,0-.34.09c-.23.25-.55.22-.82.32s-.15,0-.2-.12-.13-.11-.06-.2c.31-.33.29-.87.71-1.14.08-.05,0-.14-.08-.15s-.13,0-.12-.05.09,0,.13-.06.13,0,.16-.1.08-.43,0-.45c-.46-.09-.21-1-.89-.77-.28.1-.56,0-.84.14s-.37-.12-.52-.27a1,1,0,0,0-.82-.29A.21.21,0,0,0,104,34c0,.11.07.19.14.21.35.13.32.39.27.67h0c-.23,0-.82-.83-.74-1a.39.39,0,0,1,.41-.27,4.14,4.14,0,0,0,1-.08c.33,0,.33-.17.19-.38s-.26-.47.17-.62a.29.29,0,0,0,0-.54c-.48-.23-.38-.5-.15-.83l.09-.11a.77.77,0,0,0,.17-.8c-.12-.3-.43-.22-.74-.24a2.87,2.87,0,0,1,1.13-.27c.31-.05.27-.16.13-.34a.72.72,0,0,0-.73-.36.55.55,0,0,1-.53-.14,5.94,5.94,0,0,0,.78,0c.16,0,.36,0,.38-.26a.36.36,0,0,0-.28-.39c-.2-.05-.37-.19-.61-.11.27-.68.47-.74,1.37-.5h0c-.17.24-.44,0-.67.17a1.24,1.24,0,0,0,.63.49.52.52,0,0,1,.44.53c0,.37-.3.24-.48.32l-.23.15c.55.16,1.14.08,1.56.55-.2,0-.37,0-.44.2a.39.39,0,0,0,.16.46c.15.12.26.24-.05.3a.21.21,0,0,0-.06.28.23.23,0,0,1,0,.27c-.28.39-.27.39.23.43,0,0,.1,0,.15,0a1.21,1.21,0,0,1-.31,1.57c-.11.06-.26.1-.18.27a.26.26,0,0,0,.34.11c.49-.19.7.06.94.47a6.69,6.69,0,0,0,5.72,3.52c.52,0,1,.39,1.52.3v0c-.06.14.39.33,0,.45-.1,0,0,.19.1.22a.7.7,0,0,0,.38,0c.4-.08.78-.29,1.22-.05,0-.28-.36-.21-.36-.44s.08,0,.13,0,.29.29.44.14,0-.31-.16-.45c-.32-.4-.28-.58.13-.7.12.18-.29.23-.11.43s.44,0,.71,0c-.18.15-.27.3-.06.43a.28.28,0,0,0,.4,0c.09-.14.2-.33-.09-.4s0-.14,0-.17a.9.9,0,0,1,.79-.25.69.69,0,0,0,.68-.12c-.5-.07-.78-.28-.82-.73h0a3.85,3.85,0,0,0,1.13-.23c-.26-.33-.62-.14-.94-.17h0a.56.56,0,0,1,.54-.2,2.7,2.7,0,0,0,.75-.08c.19-.05.37-.09.43-.25s-.12-.28-.26-.34-.12-.18-.06-.28.07-.24.26-.22a2.81,2.81,0,0,0,.58,0,.3.3,0,0,0,.25-.25c0-.1-.15-.13-.27-.14a1.66,1.66,0,0,0-1.34.5l-.06-.06c.24-.37.32-.84.82-1.06a1.61,1.61,0,0,0,.2-.9.89.89,0,0,1,.49-.91c0,.38.26.51.72.37.19-.06.36-.14.51,0,.38.47.79.18,1.19,0a.19.19,0,0,0,.12-.07c.08-.15.4,0,.38-.26s-.24-.21-.41-.23l0,0c-.14-.64-.53-.12-.81-.17s-.35.11-.48-.09c.49,0,.49,0,.32-.44a.21.21,0,0,1,0-.26c.1-.11.23-.28,0-.34a.67.67,0,0,0-.67,0c-.09.08-.28.23-.13.43s.27.39.41.58a1.15,1.15,0,0,0-.78.38c.18-.56-.11-.61-.43-.58s-.43-.08-.39-.4a1.25,1.25,0,0,0,0-.43c-.07-.39,0-.68.47-.63.13,0,.18-.06.17-.18s.07-.45-.13-.46c-.58,0-.73-.45-.92-.86Zm1.16,4.49c-.18-.4-.41-.36-.68-.1.21.28.45.15.69.09,0,.16-.39.26,0,.49h-.22c-.24,0-.63-.06-.62.23s.38.12.59.14.47-.11.69-.07c.42.07.18-.25.27-.36s0-.29-.11-.32S122.12,32.69,121.91,32.76Zm-4.64,9c-.12-.11-.19-.14-.21-.19-.09-.23.15-.54-.16-.69s-.45.2-.7.22a.58.58,0,0,0-.17.06c-.13,0-.32,0-.32.21s.18.19.28.29C116.38,42,116.78,41.63,117.27,41.71ZM120,37.18c.46.34.87.08,1.24-.14.19-.12.22-.36-.06-.51a.55.55,0,0,0-.82.24C120.3,37,120.15,37.06,120,37.18Zm-6.15.82a.1.1,0,0,0-.11.1c0,.08,0,.17.09.19a2,2,0,0,1,1.18.44c.16.15.21-.07.29-.18s-.07-.19-.12-.21C114.77,38.22,114.35,38.12,113.86,38Zm7.9-7.39c.23,0,.44,0,.45-.29S122,30,121.82,30s-.55,0-.56.3S121.52,30.65,121.76,30.61Zm-3.86-7.38c-.22,0-.38,0-.36.3a.34.34,0,0,0,.35.37c.26,0,.38-.27.4-.46S118.07,23.23,117.9,23.23Zm-4.65,16.91c.21,0,.31-.06.3-.3s-.22-.27-.36-.27-.35,0-.33.31S113,40.15,113.25,40.14Zm7.26-5.94a4.34,4.34,0,0,0,1.25-.06A.88.88,0,0,0,120.51,34.2Zm2.92-4.9v-.1h-1.51v.1ZM107.7,33.92c-.16,0-.37,0-.36.2s.24.24.39.27a.29.29,0,0,0,.35-.3C108.07,33.89,107.86,33.91,107.7,33.92Zm13.15-10.59c.15,0,.28-.06.28-.24s-.19-.22-.33-.24-.33.06-.32.18A.33.33,0,0,0,120.85,23.33Zm-4.35-1.46a.25.25,0,0,0,.26-.23c0-.14-.07-.16-.18-.16s-.27,0-.29.18S116.38,21.85,116.5,21.87Zm4.13,4.63h1C121.34,26.18,121,26.38,120.63,26.5Zm-10.19-2.71s-.11-.15-.14-.14-.29.07-.34.22.09.23.14.2S110.39,24,110.44,23.79Z"/><path class="cls-1" d="M93,26.82c.44.06.63-.37,1-.49.1,0,0-.25-.19-.37l-.08-.07c.16-.41-.26-.32-.38-.48s.18-.47-.16-.6a.61.61,0,0,0-.51,0c-.05,0-.06.18,0,.26s.24.18.4.18a.7.7,0,0,1,.14,0c-.12.15-.32,0-.46.15a4.64,4.64,0,0,1,.4.36c0,.06.25.12.1.22s-.09.25-.28.22-.2,0-.22-.18c0-.33-.34-.47-.49-.73s-.39-.53-.75-.18-.38,0-.55-.14a.52.52,0,0,0,.34-.53c.16,0,.5.1.46-.15s-.39-.05-.6-.12c.09.09.17.15.15.28s-.21,0-.3-.1-.45-.39-.79-.24c-.19.07-.32-.07-.45-.18-.3-.23-.58-.34-.83.08-.12.2-.28.18-.43,0,0-.21.5-.2.31-.41s-.52,0-.76.1.11.18.11.36a14.51,14.51,0,0,0-1.86.11c-.35.06,0-.35-.27-.44s.1-.12.13-.13c.32-.12.67-.35,1,.08.14.2.38,0,.41,0,.16-.38.48-.31.74-.27a8.69,8.69,0,0,1,1.76.34.26.26,0,0,0,.34-.06c.12-.14,0-.19-.09-.28a1.71,1.71,0,0,0-1.36-.79,2.44,2.44,0,0,1-1.59-.78c-.16-.19-.4-.08-.6-.09-.39,0-.8.09-1.13-.36.46,0,.83.36,1.27.09,0-.09-.33,0-.18-.21a1,1,0,0,1,.46-.23c.2-.07.13.11.16.2a.44.44,0,0,0,.65.29c.45-.27.9-.13,1.35-.17a6.92,6.92,0,0,0,1.43-.13c.3-.08.69.13,1,.24a10.28,10.28,0,0,1,3.66,2.05c-.23.2-.69-.14-.73.36a.25.25,0,0,0,.29.3c.28,0,.67.16.71-.42l1,1.06a1.07,1.07,0,0,0-.74.36c-.08.09-.16.18-.1.3s.21.07.31.05a1.14,1.14,0,0,0,.38-.16c.37-.19.58,0,.75.29.09.17.12.29-.09.37s-.26.11-.15.27a.21.21,0,0,0,.33.07c.21-.18.31,0,.42.12s.17.25-.06.45c-.49.42-.38.69.27.84s.58.23.32.68c-.14.24-.16.6.14.71.52.19.46.62.54,1a2.8,2.8,0,0,1,0,.41c-.19,0-.23-.15-.34-.2s-.2-.24-.35-.08a.22.22,0,0,0,.07.37c.31.13.28.3.16.55s.16.4.3.42c.31,0,.25.18.23.39a1.29,1.29,0,0,1-.8,1.22c-.15.07-.26.12-.43-.07s-.77-.21-1.15-.34c-.07,0-.16.08-.18.19a.25.25,0,0,0,.11.25,1.26,1.26,0,0,0,1,.23c.08,0,.21-.05.25.08a.21.21,0,0,1-.09.26c-.19.13-.5.19-.31.55,0,.06-.08.09-.13.08s-.34.09-.51.1-.41,0-.39.24.29.15.46.15.49-.12.72,0,.27.21.06.37a11.1,11.1,0,0,1-1.32.92c-.35.2-.39.69-.6,1s-.38.53-.7.23-.64-.29-.92.06c-.13.15-.33.2-.47.31s-.38,0-.36.23a.63.63,0,0,0,.37.52c.2.08.51.08.48.35s-.32.36-.54.36c-.64,0-.76.61-1.16.89s-.64.57-1.17.37a1.51,1.51,0,0,0-1.19.23,6.21,6.21,0,0,1-1.76.32c-.38.07-.57-.25-.39-.6a.45.45,0,0,0-.13-.62.87.87,0,0,0-.85-.26.35.35,0,0,0-.24.26c0,.13.15.13.21.2s.21,0,.22.17-.33-.21-.37.1.23.21.33.24c.29.1,0-.2.16-.25s.33.21.28.44-.09.31-.32.17a4.31,4.31,0,0,0-1.45-.61c-.06,0-.16,0-.17-.06-.17-.55-.55-.41-.94-.34a.58.58,0,0,1-.54-.13c-.26-.24-.6-.14-.93-.14a.9.9,0,0,0,.42.76c.06,0,.14,0,0,.12s.14.18.23.27c.3-.43.66.09,1-.08-.26.2-.6.15-.87.34s-.44-.11-.61-.23-.26-.73-.83-.58c-.1,0-.11-.37.09-.49s.17-.16.12-.25-.21-.08-.31,0-.44.33-.69.08-.1-.52,0-.77c0,0,0-.1,0-.17-.2.06-.38.26-.58.06a.48.48,0,0,1-.15-.55c.56.45,1.1.32,1.32-.32,0-.08,0-.25,0-.26s-.23-.18-.4-.11-.35.13-.55.21c0-.16.3-.27,0-.44s-.51,0-.53.09c-.07.34-.23.17-.36.12s-.49-.09-.74-.17a1.59,1.59,0,0,1,.38,0c.46.09.63-.24.81-.55.06-.11.12-.22,0-.3s-.19,0-.29.08a1.16,1.16,0,0,1-1.64-.15c.38.2.55.08.62-.21a.79.79,0,0,1,.48-.54c-.17-.33-.43-.28-.53,0s-.42.2-.55.42-.12,0-.17-.1-.09-.5-.28-.7c.2-.13.3,0,.41.13a.24.24,0,0,0,.38,0c.15-.14,0-.24-.07-.31-.35-.24-.21-.64-.15-.88s0-.26-.12-.36a.25.25,0,0,0-.38-.07,1,1,0,0,1-.25.13c-.14.05-.2-.07-.23-.18s.11-.06.16-.1c.29-.21.58.07.87,0,.08,0,.2,0,.23-.1a.22.22,0,0,0-.14-.28,2.34,2.34,0,0,1-1.24-.86c.37-.21.66-.64,1.16-.74,0,0,.11-.11.13-.18s0-.29-.09-.3c-.4,0-.16-1.1-.94-.55.25-.44.3-1,.83-1.17.17-.06.25-.17.19-.33S79.21,29,79,29s-.5,0-.28-.35c.07-.11.07-.21,0-.24-.25-.09-.12-.24-.1-.4.06-.36.3-.48.62-.52l.06.08a2.08,2.08,0,0,0,1.18.77c.14.06.21,0,.21.22s.25.12.41.07c-.06.43-.16.5-.48.28s-.44-.32-.6,0-.29.51.12.78A1.32,1.32,0,0,1,80.82,31a10.42,10.42,0,0,0,.08,1.76c0,.32.32.65.48,1a6.72,6.72,0,0,0,5.15,4c.22,0,.47,0,.49.36,0,.15.36.23.58.18a1.46,1.46,0,0,1,.36-.09,1.81,1.81,0,0,0,.37-.09v.15c0,.17-.4.08-.21.33a.36.36,0,0,0,.52,0,.79.79,0,0,1,1.06-.2c.11.07.14,0,.18-.07s0-.14-.06-.2a.45.45,0,0,1,.21-.6.17.17,0,0,1,.11.06c.11.14-.16.14-.07.28l.4,0c-.1.15-.4.15-.28.42s0,.32.26.34.33-.13.44-.3a1.57,1.57,0,0,1,.89-.59c.13,0,.34-.07.35-.27s-.11-.22-.27-.19l-.08-.07c.15-.25,0-.31-.21-.33h-.71a1.43,1.43,0,0,1,.78-.16c.6,0,.79-.45,1-.82.1-.16.13-.34.41-.21s.42.17.5-.14,0-.38-.44-.44c.28-.52.8,0,1.14-.27,0,0,.1,0,.14,0s.39-.13.43-.37-.25-.23-.37-.35-.39.07-.5-.16h0a5.77,5.77,0,0,0,.72,0c.24,0,.47-.22.43-.47s-.22-.39-.53-.23a1.28,1.28,0,0,1-.52,0h0c.21-.3.64-.19.87-.45,0,0,.14,0,.17-.11-.42-.16.05-.27,0-.4-.11-.61.26-.22.43-.2a1.25,1.25,0,0,1,.33.13c-.12.08-.33,0-.35.23s-.13.11-.06.21.24.15.29.08c.18-.25.54.25.63-.18,0-.25-.24-.2-.35-.35.09,0,.2,0,.23-.07s.33,0,.32-.21-.19-.12-.29-.18-.41-.38-.74-.25c.38-.15.34-.13.21-.54a.51.51,0,0,1,.22-.67c.16-.08.32-.29.26-.41s-.31-.23-.53-.24a.83.83,0,0,0-.58.17s0,.17,0,.18c.38.18.4.48.27.82,0,.07.14.13,0,.19a.23.23,0,0,1-.22-.05,4.78,4.78,0,0,0-.86-.76c-.3-.25-.13-.38.14-.44s.44-.07.65-.12a.24.24,0,0,0,.15-.16c0-.12-.09-.09-.16-.12-.23-.06-.4-.25-.71-.11s-.42-.13-.58-.76c.25.13.43.51.73.19.16-.16-.07-.18-.23-.3h.69c-.06.11-.12.21,0,.3a.35.35,0,0,0,.41,0c.07,0,.15-.13.09-.19a.29.29,0,0,0-.37-.06c-.05,0-.13,0-.19,0s.37-.14.27-.37a.41.41,0,0,0-.4-.21c-.33,0-.46.21-.56.5-.17-.16-.21-.47-.54-.44.38-.09.69-.34,1.12-.18.15.05.59.26.6-.25,0-.12.1-.09.17-.12s.51-.11.38-.43-.15-.75-.66-.73c-.15,0-.29,0-.44,0a.24.24,0,0,0-.23.2c0,.16.08.21.18.23.35,0,.43.3.49.66-.37-.18-.66.2-1,.08a2.15,2.15,0,0,0-.87-.18c-.35.06-.48-.09-.59-.36A.18.18,0,0,0,93,26.82ZM87.09,38.68c-.16-.06-.27-.35-.48-.09-.21-.26-.5-.21-.78-.2-.11,0-.3-.08-.33.09s.19.25.32.28c.41.1.84.14,1.25.24a.85.85,0,0,0,.73,0,.06.06,0,0,0,0-.11A1.17,1.17,0,0,0,87.09,38.68Zm7.64-2.28c0,.1-.27,0-.24.16a.21.21,0,0,0,.21.17.56.56,0,0,1,.23,0c.1.06.16.17.25.22s.45,0,.37-.26-.4-.14-.59-.2l0,0c.16-.14.53.08.54-.32s-.26-.4-.49-.5c-.06,0-.16,0-.24,0-.61-.11-1,.47-1.58.48C93.66,36.33,94.22,36.14,94.73,36.4ZM92.39,23c.1.08.18.18.26.18a3.23,3.23,0,0,1,1.61.43c.08.05.29,0,.21-.15s-.29-.64-.5-.68A1.75,1.75,0,0,0,92.39,23Zm-3.26-.84h.62A.23.23,0,0,0,90,22c0-.13-.14-.15-.2-.16a4.3,4.3,0,0,0-1.24,0,.22.22,0,0,0-.21.23c0,.19.15.13.25.14ZM95.94,34.6c.21,0,.5-.1.57-.44a.21.21,0,0,0-.28-.23c-.28.12-.63.21-.72.54C95.47,34.6,95.72,34.6,95.94,34.6Zm-6.62,3.88c-.25,0-.47,0-.48.23s.13.26.32.26.5-.06.52-.19S89.47,38.46,89.32,38.48Zm6.4-2.81c.17,0,.42,0,.39-.22s-.26-.17-.43-.17-.42,0-.4.21S95.55,35.66,95.72,35.67ZM84.86,39.32c0-.26-.22-.26-.4-.25s-.37,0-.37.19.26.26.43.28A.31.31,0,0,0,84.86,39.32Zm6,.62c-.13-.16-.21-.31-.43-.29s-.28.09-.26.26.14.24.3.23A.59.59,0,0,0,90.9,39.94ZM79.18,28.38c-.09,0-.28-.07-.26.15s.22.25.4.23.29.08.27-.15S79.38,28.38,79.18,28.38Zm-.47,3.85a.7.7,0,0,0,.76-.2s-.06-.12-.11-.13A.48.48,0,0,0,78.71,32.23Zm2-1a.56.56,0,0,0-.63-.36c-.11,0-.1.13-.07.19C80.15,31.33,80.42,31.17,80.7,31.18Zm15.62-2.46a.25.25,0,0,0-.3-.14c-.12,0-.29.05-.26.21s.15.28.3.25S96.36,29,96.32,28.72Zm-.08.7a.66.66,0,0,0-.62-.25.08.08,0,0,0,0,.14c.14.23.37.11.56.13Zm-4.58,9.63q0-.18-.18-.18c-.12,0-.23,0-.21.17a.23.23,0,0,0,.26.22C91.67,39.27,91.66,39.16,91.66,39.05Z"/><path class="cls-1" d="M42.82,17.12c0-.16,0-.33.19-.4s.25-.11.17-.27-.07-.24-.26-.23-.19.12-.19.26,0,.15-.09.13c-.27-.11-.15-.44-.35-.6s.05-.21.09-.16.29-.5.38,0a.33.33,0,0,0,.45.11,2.25,2.25,0,0,0,.38-.19c.13-.11.43-.05.4-.33s-.33-.17-.54-.24c.29-.13.42-.38.12-.51-.58-.25-.17-.34,0-.48s.22-.06.26-.19c-.15-.07-.14-.06,0-.16s.21-.53.46-.7c0,0,0-.14-.06-.15a.64.64,0,0,0-.27,0c0,.37-.38.34-.6.42s-.06.28-.24.32c-.23-.21-.32-.6-.73-.64-.09,0-.14-.12-.13-.23s.14-.09.23-.1.19,0,.29,0,.09-.08.14-.12-.09-.12-.13-.13c-.23,0-.53,0-.47-.33s.38-.32.64-.37c0,0,.06,0,.09,0h0a.88.88,0,0,0,1.24.68.45.45,0,0,0,.29-.44c0-.27-.24-.13-.37-.14a3.29,3.29,0,0,1-.82-.1h.93c.15,0,.27-.06.26-.21s-.11-.19-.24-.18a3,3,0,0,1-1.84-.76c-.28-.19-.63-.05-.91-.22-.1-.06-.29-.05-.28-.2s.18-.19.33-.18a2.16,2.16,0,0,1,.44,0c.67.16.91-.39,1.27-.75a.11.11,0,0,0-.07-.2c-.18,0-.47-.19-.51.13s-.14.24-.31.24a4.77,4.77,0,0,0-1,.08A.5.5,0,0,0,41,10c-.19.49-.61.23-.91.22s-.52-.06-.39-.5-.25.13-.32-.1c.35-.31.81-.48,1.15-.83.17-.18.36,0,.45.16.41.68.86.75,1.4.14a1.23,1.23,0,0,1-.87-.55c.19-.16.43-.28.55-.53a.61.61,0,0,1,.41-.32c.16,0,.37-.16.46,0s-.17.22-.29.29-.24.2-.15.34a.36.36,0,0,1,0,.4c-.07.15,0,.24.18.23h1.12c.1,0,.19,0,.19-.15a.16.16,0,0,0-.17-.14c-.35,0-.44-.27-.66-.44A1.15,1.15,0,0,1,44,8c.17,0,.32.06.3.23,0,.33.12.42.39.34s.22-.32.12-.54c0,0,0,0,0,0V8h.49a.52.52,0,0,1,.57.56c0,.18,0,.4.23.4a.6.6,0,0,0,.46-.27c.29-.38.32-.88.65-1.25s.23-.35.71-.24c-.12.2-.47,0-.51.37,0,.16-.1.26,0,.45a.45.45,0,0,1-.08.66c-.26.21-.22.52.09.56s.22.18.17.34a.38.38,0,0,1-.08.17c-.16.13,0,.45-.18.46s-.14-.29-.22-.44-.25-.13-.4-.06a3.31,3.31,0,0,0-.93.55.55.55,0,0,1-.61.13c-.43-.13-.9-.39-1.11.29,0,0-.15,0-.17,0s-.33,0-.2.26.2.29.41.16A1.62,1.62,0,0,1,45.65,11a.54.54,0,0,0,.55-.09,1.57,1.57,0,0,1,1.23-.27c.16,0,.16.09.15.17s.12.31-.11.41-.45.23-.67.34-.3.1-.27.29.22.19.36.23.52-.14.49.17.44.84-.24,1.15a2.4,2.4,0,0,0-.9.94c-.31.53-.28.7.28.92,0,.13-.1.2-.19.26s-.27.13-.17.32.27.15.43.1a.75.75,0,0,0,.12-.07c.17-.06.29-.31.47-.24s.22.38.31.58.06.25.1.37a1,1,0,0,1-.4,1.39c-.36.2-.09.67-.43.85,0,0,.05.11.09.13a.21.21,0,0,0,.27,0,4.34,4.34,0,0,1,.63-.43c-.46.43,0,.84,0,1.25,0,.21,0,.22-.25.32.21-.48.19-.55-.26-.78.17.32,0,.4-.25.38a.3.3,0,0,0-.33.39c0,.27.25.21.45.11A1.38,1.38,0,0,1,47.5,20s0,.06,0,.07c-.1.2-.45.36-.27.59s.53.12.81.07a.6.6,0,0,0,.14-.05c.06.49.15.94-.5,1.12-.22.06-.4.34,0,.53.1,0,.13.11.06.17-.25.21-.13.48-.16.75.64-.07.36-.7.69-1.1-.12.62.29.89.52,1.3a2,2,0,0,1-.81.15c-.13,0-.23,0-.19.18s0,.19.22.14.36,0,.13.23,0,.42.16.48a2.67,2.67,0,0,0,.71.05c-.39.2-.41.59-.64,1l.73-.51L50,27c-.51-.28-1,.11-1.49-.11a.31.31,0,0,0-.42.14c-.1.23.12.27.24.32s.24.16.23.32a.24.24,0,0,0,.21.28c.15,0,.22-.08.28-.21a.59.59,0,0,1,.27-.27c.21-.07.42-.37.67-.1a1.31,1.31,0,0,1,.24.84c0,.15-.12.1-.24.07s-.37-.21-.59-.11c.41.23.47.66.57,1.06,0,.08-.17.14-.28.19s-.22.11-.12.26a.21.21,0,0,0,.33.07,2.6,2.6,0,0,0,.36-.5c.15.6.09.75-.29.95s-.11.38-.15.57h0a.26.26,0,0,1-.22-.06c-.2-.16-.4-.26-.58,0s-.16.29,0,.42a1.86,1.86,0,0,0,1,0A.64.64,0,0,0,50,31L50,30.9c.13,0,.32-.07.37.14s.27.24.47.27c-.12.17-.44.16-.35.46s.29.18.47.21c.35.05.68.14,1,.18.16,0,.17.14.2.22s-.08.14-.16.18a1,1,0,0,1-.75.07c-.16,0-.33,0-.39.11s.07.23.2.32.51.32,0,.48c-.28.08-.28.24,0,.38s.26.28,0,.39c0,0,0,0-.05,0-.26.12-.54.22-.5.6s.4.2.67.31c-.15.08-.29.09-.38.21a.42.42,0,0,0,0,.48c.08.21.22.14.35.13s.17-.15.24,0a.21.21,0,0,1-.07.26c-.62.55-1.09,1.27-1.92,1.55a1.47,1.47,0,0,0-.55.41,2,2,0,0,1-1.27.35c.37,1.1-.67,1.28-1.19,1.8-.08-.18,0-.48-.41-.27-.15.08-.3-.07-.34-.19s.14,0,.17-.11a1.19,1.19,0,0,1,.56-.57c.26-.16-.08-.83-.48-.93a.75.75,0,0,1,.37-.53c0,.12-.08.27.12.29s.26-.17.38-.26a.08.08,0,0,0,0-.15c-.14-.08-.22,0-.33.09l-.18,0c0-.17.06-.35.08-.52s0-.35-.33-.29c-.12,0-.1-.09-.15-.14a1.75,1.75,0,0,1-.51-.74c.1-.17.44.07.41-.19,0-.43.69-.78.12-1.24h0c.64-.05,1.32.14,1.92-.28.13-.1.25-.15.21-.32s-.19-.18-.34-.18c-.38,0-.76,0-1.15-.05a.67.67,0,0,0-.76.66l-.08.08a2.89,2.89,0,0,0-.63-.85c-.06,0-.43-.26,0-.36a.24.24,0,0,0,0-.12c-.22-.09-.38-.23-.18-.45a.62.62,0,0,1,.8-.18s.09,0,.14,0c-.2-.71-.26-.73-.91-.3-.26-.31-.15-.71-.29-1.06s.07-.42.36-.38L45,31c0,.17-.33.41,0,.49s.78-.05,1.12.21c0,0,.11,0,.16-.06.3.16.48-.14.71-.21s0-.17-.11-.2c-.39-.14-.44.22-.61.42,0-.14.1-.36,0-.39-.38-.11-.65-.53-1.11-.43h0c.1-.21.29-.1.42-.09.3,0,.51-.1.51-.36a.52.52,0,0,0-.63-.58c-.06,0-.08,0-.12-.05.51-.2.81-.85,1.5-.69,0,0,.09-.07.14-.11s-.08-.13-.12-.14a3.34,3.34,0,0,0-1.4-.18.87.87,0,0,1-.32.06c-.12,0-.07-.13-.08-.2s.09-.1.12-.07c.25.18.45,0,.66-.08s.22-.07.31,0,.25.12.39.13.59,0,.61-.24-.34-.28-.58-.25-.33-.16-.5-.28c-.16.28-.34.5-.74.3-.15-.08-.17-.13-.18-.26s.06-.26,0-.32-.29-.21-.13-.36.28.06.41.13a3.37,3.37,0,0,0,.32.19c.11,0,.18-.05.22-.14s0-.12-.14-.14c-.3-.06-.29-.31-.32-.55.3.32.58.64,1.11.26-.5-.21-.83-.51-.73-1.07h0c.22,0,.41.37.68,0-.17-.06-.44-.11-.45-.19,0-.44-.37-.3-.62-.34h0s0,0,0,0c.22-.14.64-.09.56-.5s-.43-.4-.74-.47c0-.24.48.09.35-.27a.42.42,0,0,0-.46-.28c-.16,0-.27.05-.31.23s.09.27.27.32c-.26-.08-.37.4-.62.17s-.61-.47-.6-.91c0-.1,0-.2.14-.19s.21.05.17.19-.1.28.05.27a1.14,1.14,0,0,0,.55-.22c.09-.06.07-.23,0-.35s-.2-.28-.31-.41c-.39-.47-.38-.58.16-.88l.26-.1c0-.13-.21-.1-.26-.1-.23,0-.31-.09-.27-.3s.08-.36.35-.35.31.08.46.1a.5.5,0,0,0,.48-.1c-.25-.18-.63,0-.8-.28.32.13.68,0,1,.18a.32.32,0,0,0,.41-.24c.05-.19-.14-.31-.32-.32s-.58,0-.87,0-.41.12-.22.4c-.35,0-.54-.52-1-.28a.66.66,0,0,1,.89-.34c.52.36.84-.09,1.25-.2a.28.28,0,0,0-.43-.12c-.16.1-.29.2-.48.13,0-.21.48-.3.14-.55s-.52-.34-.84,0-.61.43-1,0c-.23-.25-.34-.62-.68-.76a.21.21,0,0,1-.11-.29c.1-.18.17,0,.25.06a.23.23,0,0,0,.34,0c.15-.17,0-.23-.1-.31-.27-.28-.66-.53-.23-1a.55.55,0,0,0,.68.49c0,.22-.09.5.3.49,0,0,0,.06-.05.07a.4.4,0,0,0-.35.51c0,.29.17.36.42.23,0,0,.05.06.07.09.26.28.47.19.73,0,.53-.43.69-1.17,1.28-1.48,0-.18-.18-.14-.23-.24.14-.15.43-.06.51-.34a.56.56,0,0,1,.59-.38c.16,0,.33,0,.31-.2a.35.35,0,0,0-.34-.29,2,2,0,0,0-1.58.7c-.26.28-.45.58-.85.2,0-.06-.19,0-.32-.05.15-.1.29-.14.28-.35Zm4.55,19.6c-.26-.08-.37.15-.56.2s-.28.06-.27.21a.2.2,0,0,0,.28.18c.12,0,.41.2.35-.18,0-.15,0-.08.12-.07a2.92,2.92,0,0,0,1.1-.1c.56-.12.55-.13.23-.63,0,0,0,0,0-.06s.28,0,.41.06a.46.46,0,0,0,.61-.31c.08-.19,0-.29-.12-.24a1.8,1.8,0,0,1-1.21,0c-.15,0-.36.17-.51.3a.59.59,0,0,1-.43.17c-.12,0-.31-.11-.36.1S47.19,36.62,47.37,36.72ZM44.81,15.06c-.77-.27-.57.79-1.09.84,0,0,0,.16.09.19a.36.36,0,0,0,.41,0c.19-.12.5-.39.51-.38.43.31.4-.19.56-.32.35-.27.15-.4-.27-.44.24-.07.46,0,.52-.19s-.15-.24-.23-.34-.13-.18-.21-.2c-.27-.07-.56-.36-.83-.11a1.11,1.11,0,0,0-.39.69c0,.27.43.18.65.29S44.71,15.06,44.81,15.06Zm5,19.1a1,1,0,0,0-.15-.19c-.1-.07-.25-.09-.19-.27s.2-.18.35-.17.22,0,.29,0a.17.17,0,0,0,.28,0c.11-.13,0-.2-.09-.27s-.53-.34-.61-.57-.27-.23-.43-.21-.22.23-.18.39.18.33,0,.44-.29-.11-.45-.16-.12-.1-.19-.14-.36-.11-.45.09a.3.3,0,0,0,.14.44c.37.18.72.38,1.08.58A.56.56,0,0,0,49.79,34.16Zm-2.1-.87c0-.43-.45-.82-.73-.64-.46.29-.91.6-1.37.9-.05,0-.15.08-.07.18s0,.19.17.19a.61.61,0,0,0,.45-.2c.24-.23.51-.32.78,0a.33.33,0,0,0,.47.09C47.54,33.66,47.75,33.53,47.69,33.29Zm-.5-7.58a.79.79,0,0,1-.62.34c-.06,0-.14,0-.13.1s.07.1.14.08a4.57,4.57,0,0,1,1.38.06c.21,0,.38-.05.28-.18s-.25-.65-.69-.55a.74.74,0,0,1-.5-.11,1.12,1.12,0,0,0-.77,0C46.53,25.73,46.84,25.62,47.19,25.71ZM47.51,23c-.15-.18-.1-.57-.39-.51s-.69.15-.65.47.5.25.76.37S47.39,23.12,47.51,23Zm-.6,7.1a1.21,1.21,0,0,0,.19,0c.11,0,.26.08.3-.14a.26.26,0,0,0-.25-.32,1.59,1.59,0,0,0-.78,0c-.12,0-.31,0-.33.21s.22.11.31.18S46.72,30.11,46.91,30.13Zm-1-8.07c.16-.11.54,0,.56-.36s-.39-.17-.57-.28-.43.13-.44.37S45.6,22.08,45.86,22.06Zm.8,13.33c-.16.49.24.66.49.71a.7.7,0,0,0,.75-.53C47.45,35.57,47,35.78,46.66,35.39Zm1.21,2.41c.23,0,.52,0,.55-.24s-.28-.35-.46-.31-.46,0-.46.31S47.69,37.81,47.87,37.8Zm-8-28c.31.16.55.48.91.12.1-.1.12-.19,0-.28C40.45,9.41,40.17,9.53,39.88,9.84Zm6.83,22.62h.19c.11,0,.27.09.3-.12s-.15-.17-.24-.24-.15,0-.22-.06-.33.06-.48.15-.13.1,0,.19.27.06.4.08ZM44.12,13.77a.64.64,0,0,0,.7-.17c.11-.13.06-.29,0-.45s-.08-.13-.17-.12-.15,0-.13.09C44.55,13.44,44.22,13.54,44.12,13.77Zm4.29,16.07a.24.24,0,0,0,.31-.27c0-.2-.19-.24-.38-.22s-.37,0-.35.27S48.22,29.84,48.41,29.84Zm-.49,1.65c.12,0,.37.12.36-.21S48.16,31,48,31s-.35,0-.37.27S47.76,31.48,47.92,31.49Zm1.49.39c.22,0,.32-.08.33-.31s-.14-.17-.26-.18-.33.08-.33.31S49.29,31.87,49.41,31.88ZM45.06,9.52c.08-.09.29,0,.29-.22s-.19-.23-.33-.25-.26.1-.24.27A.23.23,0,0,0,45.06,9.52ZM49.25,35.4c-.21-.26-.19-.56-.54-.51l-.1,0C48.66,35.21,48.85,35.32,49.25,35.4ZM48,28c.05,0,.19,0,.14-.17a.3.3,0,0,0-.28-.22c-.19,0-.14.13-.15.23S47.81,28,48,28Zm-2.51-9.35c.22,0,.43.09.55-.12a.14.14,0,0,0-.08-.2A.54.54,0,0,0,45.47,18.64Z"/><path class="cls-1" d="M131.63,36a1,1,0,0,1,.57-.52,3,3,0,0,0-1.1,0c-.08.09,0,.14,0,.21s.07.2-.06.24-.14-.08-.18-.17-.23-.39.15-.56c.54-.22.52-.5,0-.81-.24-.15-.31-.53-.69-.49-.07,0-.07-.14-.05-.21s.1-.08.18,0c.26.14.4-.08.58-.19a.54.54,0,0,0-.46-.24c-.34.06-.41-.18-.49-.39s.06-.29.26-.34,0-.18,0-.27c-.06-.61.26-.87.79-.66.08,0,.14.16.24.06a.17.17,0,0,0,0-.14c0-.16-.18-.18-.28-.2s-.32.11-.5,0a.87.87,0,0,0-.55-.16c.25-.14.5-.23.52-.57,0-.09.15-.09.25-.1s-.17.21-.1.34a.14.14,0,0,0,.21,0c.08-.07.26,0,.25-.17s-.21-.2-.37-.2c.24-.32.33-.75.71-1,.09-.05.1-.21,0-.25-.31-.2-.33-.73-.82-.73-.13,0-.19,0-.11-.24.26-.65.56-.82,1.4-.68-.18.12-.41,0-.6.13s-.22.09-.21.22.1.19.23.19c.41,0,.47.23.44.56,0,.09,0,.23,0,.28.3.28.63.53.93.79-.1,0-.32,0-.36.18s.1.22.25.23l.08.05-.13.05c-.17.06-.16.12,0,.19a.23.23,0,0,1,.13.28c0,.16-.18.11-.28.11-.36,0-.49.29-.31.45.85.72.76,1.83,1.22,2.7a7.91,7.91,0,0,0,2.44,2.79c-.39-.06-.64,0-.65.34,0,.16.19.31.39.32s.51-.12.44-.52a7.71,7.71,0,0,0,3.17.93,2.92,2.92,0,0,1,.89.4.19.19,0,0,1,.1.1c.11.36.11.36.46.36a1.33,1.33,0,0,1,.53,0c.15.06.31,0,.47.12-.51.12-.92.54-1.49.38.32.12.62.55.95,0,0,0,.05-.06.06,0,.38.11.62-.17.92-.3.1,0,.18-.05.17-.17s0-.21-.12-.22-.28-.13-.46-.11-.37,0-.4-.33-.46-.15-.66-.27c.52-.25.57-.22.9.29a.42.42,0,0,0,.69.11A.77.77,0,0,1,143,38a.7.7,0,0,0,.88-.7c0-.25.28-.16.35-.32-.43-.3-.88-.06-1.32,0v0c.32-.62.85-.22,1.21-.16a2.79,2.79,0,0,0,1.46.1,1,1,0,0,1-.57-.56c.43.37.82.06,1.19.2a1.19,1.19,0,0,1,.51.29c.16.17.43.28.53-.08,0-.12.09-.13.14-.09.3.25.58.11.85,0,0,0,.11.06.06.12s.25.5-.1.67a1.23,1.23,0,0,1-1.41-.07c-.2-.18-.32-.06-.45,0s0,.64.09.73.26.07.26-.09-.08-.23.14-.21a.44.44,0,0,1,.36.29.2.2,0,0,1-.14.27,2.62,2.62,0,0,0-.52.22c-.13.05-.27.15-.27.24,0,.81-.67.86-1.21,1a2,2,0,0,0-.53.2,3.31,3.31,0,0,1-1.4.49c-.16,0-.28,0-.3.26.39.07.8.08,1,.51.11.2.34.11.44-.15a.38.38,0,0,1,.44-.22c.19,0,.06.22.17.31s0,.16-.06.19a4.48,4.48,0,0,1-1.65.47c-.09,0-.13-.08-.18-.17a2.33,2.33,0,0,0,.38,0,.21.21,0,0,0,.18-.2c0-.08,0-.16-.1-.18-.52-.09-.94-.56-1.55-.33.13.15,0,.44.3.53.08,0,.11.1.08.14-.28.31.12.31.3.52-.45-.08-.77.32-1.14-.06-.14-.14-.2.16-.32.16-.68,0-1.36,0-2,0-.19,0-.16-.17,0-.28s.22-.23,0-.34-.28-.24-.47-.09-.26.25-.09.43l-.06.07c-.1,0-.34.15-.32-.11a.69.69,0,0,1,.49-.53.78.78,0,0,1,.42.05.93.93,0,0,0,.89-.18.24.24,0,0,0,.12-.29.24.24,0,0,0-.25-.17,3.35,3.35,0,0,1-2-.71.26.26,0,0,0-.27-.06,1.63,1.63,0,0,1-1.28.1c-.13,0-.32-.08-.4.06s.14.26.18.45c-.13.13-.37,0-.49.2a.24.24,0,0,1-.35,0c-.12-.14,0-.26.12-.36s.32-.11.22-.3-.3-.13-.45-.07a1.23,1.23,0,0,1-1.37-.33c-.17-.13-.14-.21,0-.29s.31-.08.27-.22a.32.32,0,0,0-.38-.23c-.27,0-.36-.06-.37-.33s-.19-.38-.36-.24c-.5.39-.62-.14-.69-.33-.13-.36.26-.37.49-.47l0,.18c.06.22.23.23.41.22s.16-.1.13-.2-.22-.2-.38-.19h-.2c-.17-.46-.44-.6-.85-.44-.1,0-.22.08-.26,0-.1-.29-.48-.45-.37-.81.06-.19.1-.41.33-.5,0,.2-.08.43.24.44-.09.13-.32-.06-.34.18.53.42.69-.14,1-.36.09-.08.15-.22.06-.29a.37.37,0,0,0-.42-.13A4.68,4.68,0,0,1,131.63,36Zm2.24,2.31a.8.8,0,0,1-.18.12.24.24,0,0,0-.2.28c0,.18.18.08.27.11s.43.1.44.43a.33.33,0,0,0,.47.27c.13,0,.37.07.4-.15s-.2-.36-.4-.45h-.1c-.22-.1-.28-.22-.11-.44a.36.36,0,0,0-.25-.62c-.2,0-.4,0-.61,0C133.59,38.06,133.8,38.1,133.87,38.27Zm3.51,1.25a.4.4,0,0,0-.34-.45c-.22-.07-.44-.2-.64,0-.06.08-.15.18,0,.24s.45.37.77.39S137.41,39.7,137.38,39.52Zm-5.25-5.6c0,.21,0,.31.27.29s.4,0,.41-.32-.18-.34-.38-.36S132.11,33.69,132.13,33.92Z"/><path class="cls-1" d="M159.24,26.67c-.13-.26,0-.68-.48-.67.12-.22.28-.14.41-.15.51,0,.66-.34.37-.78-.18-.27,0-.62-.17-.9a.23.23,0,0,1,.1-.14c.09,0,.06.08.09.12s.31.26.1.48c0,0,0,.12,0,.12a1,1,0,0,0,.84-.32c.2-.23.1-.38-.19-.43-.07,0-.13-.06-.1-.12.16-.25.06-.53.09-.8s.24-.12.33-.24c-.18.37-.07.54.31.59s.72-.28,1.1-.47a.87.87,0,0,1-.51,1c-.11,0-.25.12-.2.26s.22.12.34.1l1.55-.19a.53.53,0,0,1-.49.2c-.14,0-.29,0-.28.19a.47.47,0,0,0,.45.36c.14,0,.51-.06.46-.2-.16-.44.15-.4.37-.44s.17-.06.16-.18-.12-.12-.21-.12-.31.14-.47.2c.11-.43.48-.5.83-.59a3.09,3.09,0,0,1,.43,0c.2,0,.45.08.49-.24s-.19-.35-.44-.41c.55-.2,1.21-.08,1.62-.63-.1.51.12.74.6.57.24-.08.64,0,.71-.42,0-.06.31-.25.39-.09.19.4.51.18.78.27-.15.21-.13.4.15.45s.49.06.56-.21-.3-.18-.43-.31c.13-.18.82.2.44-.5.31,0,.58.29.91,0-.17.42-.17.42.2.43s1-.22,1.47.11c-.23.17-.23.17-.8.18-.14,0-.3,0-.39.13s0,.25.17.31a.1.1,0,0,1,.06.08c.11.46.11.45.62.37a2.57,2.57,0,0,1,1.16.17c.64.17.77.07.82-.57A10.2,10.2,0,0,1,176,25c.08.07.21.13.15.27s-.19,0-.28,0c-.78.16-1.64,0-2.36.53a.55.55,0,0,1-.58.1c.05-.19.23-.19.36-.26s.22-.21.14-.32a.24.24,0,0,0-.38,0c-.33.57-1.06.42-1.48.86-.15.15-.42,0-.62-.09s-.06-.34,0-.45-.17-.49.08-.69c0,.45.33.31.57.25.06,0,.22,0,.19-.16s-.13-.12-.21-.16-.35.21-.56.08c-.05-.37-.25-.18-.42-.12l-.07-.08.9-.49c.09,0,.19-.1.17-.21a.2.2,0,0,0-.25-.17,2.67,2.67,0,0,1-1.76-.19c-.31-.09-.66.05-1-.09s-.55-.15-.6-.52c0-.17-.24-.25-.32-.24-.56.1-1.2-.13-1.67.37a.71.71,0,0,1-.37.2,1.19,1.19,0,0,0-.76.59,2.27,2.27,0,0,1-1.6.94c-.27,0-.55.2-.83,0,0,0-.14,0-.16.06s.19.1.18.23c-.75-.22-.78.62-1.23.85.37,0,.59-.33.9-.42a.41.41,0,0,0,.33-.44c.22.12-.07.55.38.56-.66-.21-1,.51-1.54.49-.18,0-.39,0-.46-.12s.12-.19.23-.27a1.3,1.3,0,0,0,.51-.71c-.44-.15-.8.26-1.22.18,0,.29-.15.59.07.85a1.54,1.54,0,0,0,1.08.73c.38.05.72.36,1.15.12,0,.29-.28.33-.31.54a.17.17,0,0,1-.22.14c-.09,0-.07-.14-.06-.21s-.06-.35-.22-.24c-.81.52-1.64,0-2.45.08a4,4,0,0,1-.49,0,.21.21,0,0,0-.22.14c0,.07.1.15.22.15h.87c.45,0,.45.14.34.56-.19.69-.59.71-1.14.52a.33.33,0,0,0-.38.14.29.29,0,0,0,.1.42c.22.16.45.3.66.47s.21.13.16.27a.25.25,0,0,1-.27.15c-.36,0-.48.13-.4.48a5,5,0,0,0,.08.76c.1.25-.17.4-.35.5a.76.76,0,0,0-.4,1.06c.15.29.11.44-.21.61a17.78,17.78,0,0,0-1.61,1.06.58.58,0,0,0,.53.06c.16-.06.33-.21.38.11,0,0,.22.08.16-.07s.08-.2.2-.2a.22.22,0,0,1,.25.27,1.07,1.07,0,0,1-.61.9c-.44.26-.46.42-.1.78.08.09.17.17.12.29s-.25.45-.33.72-.45.24-.72.25c0,0-.11.06-.18.1.11.18.35.14.44.34l-.34.36a1.25,1.25,0,0,1,.15,1.61A1.43,1.43,0,0,1,155,41c-.21,0-.32.16-.46.28s-.17.21-.27.06a.2.2,0,0,1,.12-.31l1-.32a1,1,0,0,0,.35-.14c.12-.11.28-.24-.05-.36s-.68-.22-1-.31c.07-.11.18-.06.28-.06a.92.92,0,0,0,.92-.85c0-.21-.08-.24-.26-.22s-.2.18-.36.06a.4.4,0,0,1,.27-.16c.28-.06.34-.19.16-.44s-.31-.54.2-.53c.33,0,.34-.3.34-.43,0-.35,0-.77-.23-1a.46.46,0,0,1-.09-.61c.23-.49.18-1.09.71-1.47.3-.22.66-.28.94-.53s.39-.39.21-.7.16-.75-.41-.84c0,0-.06-.22.12-.22.39,0,.58-.29.82-.53a.67.67,0,0,0-.64-.25c-.16,0-.32,0-.3-.21s.17-.08.28-.1c.31,0,.44-.42.77-.51l-.88-.19a2.74,2.74,0,0,0,.72-.62c.07-.13.34-.11.24-.39s-.32-.19-.49-.24c0-.35.76-.41.24-.94a.37.37,0,0,1,.34.34c-.08.42.22.41.47.42s.34.12.42-.09-.07-.32-.2-.46a.62.62,0,0,0-.34-.13c-.23-.06-.45-.24-.44-.45s.28-.24.48-.22.26-.08.41-.15l-.68-.5c.18-.13.31.09.48.07.28.49.65.07,1,.12C159.86,26.63,159.52,26.83,159.24,26.67Zm-2.75,8.41c-.21,0-.38.06-.33.3a.65.65,0,0,0,.51.57.22.22,0,0,0,.25-.31C156.84,35.42,156.86,35.09,156.49,35.08Z"/><path class="cls-1" d="M145.45,22.26c-.32,0-.86-.17-.83.34s.69.33.9.28a3.31,3.31,0,0,1,1.25.09.43.43,0,0,1-.41,0c-.16-.06-.32-.19-.27.15,0,.13-.1,0-.16,0s-.34,0-.36.21.19.2.31.22.25.18.4.08-.14-.21,0-.36c.28.16.59.33.92.07.07,0,.14,0,.2.1a11.82,11.82,0,0,1,1.4,1.43c.13.17.24.36.08.57s-.35.05-.52.06-.25.05-.28.2.12.17.23.21c.38.13.61,0,.64-.4.17-.05.31-.1.42.11.29.55.64,1.06.88,1.64,0,.08.08.2.05.27-.16.31,0,.41.27.4a.22.22,0,0,1,.21.16c0,.13-.08.2-.2.23a.92.92,0,0,0-.69.53c-.12.27-.45.16-.72.06a5.63,5.63,0,0,0-2.28-.25,5.84,5.84,0,0,0-2,.34h0c-.15,0-.35,0-.4-.16s.16-.2.25-.3a.81.81,0,0,0-1.1.17.73.73,0,0,1-.91.25.83.83,0,0,0-.6,0c-.66.21-1.31.36-1.82-.34a.71.71,0,0,0-.66-.19,4.64,4.64,0,0,1-1.22-.2h1.8c0-.2-.16-.17-.24-.24v0c.32-.06.67-.25.84.25,0,.05.13.09.2.09a8.37,8.37,0,0,0,1.87-.06c.21-.05.27-.29.29-.28.24,0,.56-.22.69.17,0,.14.16.09.25.09s.16-.07.06-.21.09-.07.12-.06c.37,0,.73,0,1.1.08a1.55,1.55,0,0,0,1.25-.53c-.44-.12-.8.19-1.17,0,.14-.26.41-.09.61-.13s.27,0,.27-.14-.13-.15-.25-.16L145.06,27c.42-.31.65-.75,1.21-.64.13,0,.3,0,.32-.14s-.15-.12-.26-.17a2,2,0,0,0-1-.05,1.12,1.12,0,0,1,1.48-.11c.25.2.44.25.62-.07-.1-.09-.29,0-.34-.2,0,0,.09,0,.12,0,.28.19.38,0,.49-.21s-.05-.36-.21-.47a5.53,5.53,0,0,0-2.65-.59c-.31,0-.44.11-.33.42l-.08.07a2.24,2.24,0,0,0-1.38-.11c-.07,0-.22.07-.26-.11-.13-.47-.5-.34-.71-.17s-.41,0-.68,0c.22-.12.52,0,.49-.29s-.3-.18-.48-.18-.49,0-.65-.22a.24.24,0,0,0-.31-.06c-.3.35-.64.12-1,.09h0l.73-.43c.26-.16.41.08.59.16a5.31,5.31,0,0,0,2.37.64l.26,0a4.3,4.3,0,0,0-3.23-1.55,2.94,2.94,0,0,0-1.52.26,1.2,1.2,0,0,1-1,0,2,2,0,0,0-1,0l-.08-.07c.06-.08.16-.1.22-.16s.48,0,.41-.3-.3-.27-.52-.25-.14-.06-.19-.16c.43-.24,1.17.4,1.38-.46.25.17,0,.29,0,.38-.17.48-.08.64.4.62a1.13,1.13,0,0,0,.93-.38.63.63,0,0,1,.41-.21,1.64,1.64,0,0,0,1-.4.43.43,0,0,1,.5-.06c.43.29.8.05,1.19-.07s.48-.17.49.27c0,.27.29.28.51.27s.29-.15.45-.09h0c0,.08-.08.08-.13.11s-.37.12-.23.31a.34.34,0,0,0,.49.1c.22-.14.32-.27.16-.51l0-.07a7,7,0,0,1,1.35.59Zm4.39,5.89c-.1,0-.2-.14-.3-.14a.28.28,0,0,0-.26.24c0,.09.15.14.27.13A.28.28,0,0,0,149.84,28.15Zm-6.74-4.93c.18,0,.27,0,.3-.16a.16.16,0,0,0-.15-.2c-.11,0-.27.07-.3.16S143,23.2,143.1,23.22Z"/><path class="cls-1" d="M30.09,16.05c-.18,0-.33-.21-.54,0s-.2-.09-.28-.17-.07-.2,0-.3a.87.87,0,0,1,1.4-.06c.07.1.14.18.27.17a.12.12,0,0,0,.12-.12c0-.14,0-.3-.13-.34-.4-.11-.66-.47-1.21-.36s-1.32.25-1.73-.48c.08-.15.45.05.37-.26s-.25-.34-.55-.23-.37-.07-.53-.22a3,3,0,0,0-.5-.44c-.14-.06-.47-.14-.08-.35.07,0,.06-.09,0-.15a.15.15,0,0,0-.17,0c-.35.26-.44,0-.51-.25s0-.49.35-.48a.63.63,0,0,0,.22-.07c0,.18-.28.4,0,.55s.36.34.56.45.51.44.84.15.21-.48,0-.7c.2-.12.55,0,.55-.33,0-.16-.21-.21-.33-.2s-.5.13-.38.54a1.51,1.51,0,0,0-1.23-.45c.05-.27.35-.13.49-.26,0-.2-.18-.13-.27-.13a12.1,12.1,0,0,0-2.25.08c-.05,0-.16,0-.17,0a.28.28,0,0,1,0-.22c.16-.19.41-.38.63-.24s.61,0,.91,0,.13-.21.19-.31h0c.41-.08.84,0,1.23-.12s.39-.53.61-.79a2.11,2.11,0,0,1,.28-.37c.15-.13.29-.14.31.13s-.12.38.1.47.36-.14.53-.28a1.25,1.25,0,0,0,.75.6,3.31,3.31,0,0,1,1.79,1.41c.24.47,0,.6-.24.83s-.29.12-.2.31.25.1.36.16.28-.18.52-.08c.67.29.9,1,1.39,1.43a.21.21,0,0,1,0,.27c-.32.54-.25.85.31,1.11.38.17.45.46.53.82s-.1.33-.3.29a1.66,1.66,0,0,1-.7-.26.28.28,0,0,0-.46.1.34.34,0,0,0,.16.49.75.75,0,0,0,.65.06.68.68,0,0,1,.42-.05c.13,0,.4-.17.38.15s.34.6-.19.72c-.19.05-.33.27-.5.34-.44.18-.85.67-1.38.17-.08-.07-.28,0-.43,0h0c0-.2-.14-.21-.27-.26,0,0,0-.05.07-.05.24,0,.59.08.64-.23s-.35-.28-.53-.32-.29-.21-.4-.35-.22-.23-.39-.07.06.25.12.36.17,0,.11.13c-.13.35-.12.36.35.46-.53,0-.89.41-1.3,0-.26-.23-.16-.39.1-.48s.43-.07.42-.39-.28-.16-.43-.21-.23-.43-.59-.34c.57-.3,0-.64.13-.92,0-.08.09,0,.15,0s.3.21.47.05.1-.14,0-.2a.63.63,0,0,0-.54-.22C29.82,15.69,30.29,16,30.09,16.05ZM27.76,11a6.15,6.15,0,0,1,.84-.09.13.13,0,0,0,.09,0c.11-.08.27-.09.23-.3a.28.28,0,0,0-.28-.26C28.21,10.25,28,10.43,27.76,11Zm5.16,5a2.5,2.5,0,0,0-1.14.63c-.11.07,0,.14.14.16C32.25,16.78,32.7,16.44,32.92,15.93Zm-1.29,0c.2,0,.31-.08.3-.26s-.14-.23-.3-.23-.34.13-.33.26A.29.29,0,0,0,31.63,15.94ZM31.46,17a1.24,1.24,0,0,0,.4.47c.1.05.16.17.28.05s0-.18-.09-.25A.7.7,0,0,0,31.46,17Zm.49-1a4.68,4.68,0,0,0-.54,0,.2.2,0,0,0-.16.22c0,.06,0,.16.09.13S31.84,16.44,32,16.05ZM28.48,11c-.2,0-.42,0-.53.21,0,.07,0,.14.12.16C28.36,11.43,28.37,11.15,28.48,11ZM29,14.48c.09,0,.23.06.26-.11s-.08-.19-.2-.18-.27-.07-.28.14S28.84,14.48,29,14.48Z"/><path class="cls-1" d="M66.32,4.62a2.91,2.91,0,0,0-.89.5c-.13.12-.42,0-.63-.06a1.5,1.5,0,0,0-1.32.13c-.14.06-.27.24-.2.39s.22,0,.34,0a.39.39,0,0,1,.28,0,1.26,1.26,0,0,0,1.06,0c.33-.15.51-.08.64.24a.68.68,0,0,0,.75.49.7.7,0,0,0-.65.47.18.18,0,0,0,.16.25c.31,0,.69.18.92-.25-.07.19.37.49-.22.59-.23,0-.07.28.1.35s.13.13.07.3a2.46,2.46,0,0,1-1.44,1.32c-.14.07-.35.12-.39.23s-.33.31-.06.49.47.48.83.17c.12-.1.09-.28.27-.34s.22.24.4.3a.26.26,0,0,1,.11.3c0,.1-.17.06-.26,0a.2.2,0,0,0-.27.08c-.2.63-.79,1-1.07,1.55a17.48,17.48,0,0,0-.7,1.87.31.31,0,0,0,0,.23c.19.37-.06.53-.33.64a4.65,4.65,0,0,0-1.22.69c0-.29-.11-.44-.4-.47.3-.28.3-.28-.18-.84.18,0,.34.16.49.07s.35-.11.4-.35c-.57,0-.3-.27-.19-.5,0-.06.1-.09.13-.14s.54-.23.34-.6-.48-.26-.81-.13c.09-.42.42-.51.66-.7s.4-.07.37-.28-.28-.09-.43-.11l-.23,0c.39-.81,1.09-.35,1.65-.49a.39.39,0,0,0-.43-.26h-.49c-.16,0-.4.09-.46-.14s.16-.38.32-.42.36-.15.31-.38-.28-.14-.4-.12c-.31.06-.61-.07-.92,0-.14.06-.29-.07-.4-.19s0-.12,0-.12a.32.32,0,0,1,.36,0c.07,0,.14,0,.16,0a.31.31,0,0,0,0-.23.87.87,0,0,0-1.1-.47l-.17.08a1.11,1.11,0,0,1-.09-.61,2.41,2.41,0,0,1,.54-.94c.11-.12.36.09.64.14-.26.13-.57-.13-.64.17s.19.28.35.39a.33.33,0,0,0,.46-.08c.16-.17-.24-.12-.15-.32s.37.25.45-.08c0-.08-.18,0-.21-.12.22-.06.55.06.63-.26s-.26-.07-.34-.19a1.68,1.68,0,0,0,.28-.24c.12-.16.13-.31-.14-.3s-.33,0-.37-.21a.31.31,0,0,1,.25-.4.11.11,0,0,0,.07-.06c.24-.73.93-.69,1.48-.89.19-.07.52-.09.18-.4a.16.16,0,0,1,0-.22c.08-.07.14.05.21.05C65.33,4.19,65.77,4.6,66.32,4.62ZM63.05,8.85a.2.2,0,0,1,0-.08c.16-.15.52-.25.39-.49s-.4.05-.6.07a.49.49,0,0,0-.47.5c0,.31.36.16.56.18-.06.36.2.4.44.39.4,0,.81-.06,1.22-.09.16,0,.31-.06.25-.24S64.69,9,64.54,9a.93.93,0,0,1-.94,0A1.59,1.59,0,0,0,63.05,8.85Zm1.17-2.77c0-.18,0-.27-.22-.25s-.41,0-.43.24.24.28.41.3A.22.22,0,0,0,64.22,6.08Zm.06,4.22c.17,0,.35,0,.32-.2s-.26-.13-.4-.18a.19.19,0,0,0-.25.21C64,10.3,64.14,10.32,64.28,10.3Zm-1.4,3.63a.6.6,0,0,0,.53-.49s-.11-.15-.22-.12C62.83,13.39,63,13.7,62.88,13.93Z"/><path class="cls-1" d="M65.6,37.51c0-.08.07-.09.14-.09s.36.08.45-.08a1.37,1.37,0,0,0,.25-.74c0-.24-.34-.25-.57-.25s-.15.16-.26,0c.1-.51.28-.89.89-.63.12-.14,0-.21,0-.28-.15-.29-.14-.46.25-.4a.42.42,0,0,0,.51-.32.35.35,0,0,1,.29-.29c-.08-.22-.33-.3-.39-.53s-.12-.21,0-.29a.29.29,0,0,1,.32,0,.68.68,0,0,0,1-.26c.08-.19-.07-.42-.17-.34-.45.39-.89,0-1.33.06.05-.63.46-1.12.52-1.8.56.49,1.1.54,1.58-.07,0-.09-.13-.07-.19-.06-.6.12-.75-.41-1-.74-.07-.08.11-.34.29-.41s.28,0,.26.21.13.24.24.34c.28.25.77.17,1,.58h0c.17-.38.72,0,.9-.45a3.24,3.24,0,0,1,.61-.88,2.8,2.8,0,0,1-.7,1.48c-.24.21-.49.12-.73.15s-.79-.14-.76.48c0,.18-.23.05-.31.17s-.26,0-.25.13.11.18.24.19a1.65,1.65,0,0,1,.36.11c.07,0,.22.13.09.19-.39.17-.25.61-.5.85-.09.09-.14.23-.27.23-.64,0-.65.47-.68,1,.23-.11.44-.3.69-.18.08,0,.23,0,.25.19a.26.26,0,0,1-.16.27c-.26.15-.63.17-.48.66,0,.14-.26.12-.39.19s-.3,0-.43,0-.41.09-.38.35a.37.37,0,0,0,.37.32,3,3,0,0,0,.41.09c.29,0,.21.23.16.34a1.43,1.43,0,0,1-.32.49c-.36.19-.36.46-.33.77s-.24.45-.42.61c-.41.34-.49.53-.19.92.14.19,0,.27-.09.33a.44.44,0,0,0-.23.62c.1.19,0,.24-.13.29s-.45.21-.68.3-.32.16-.29.34a.42.42,0,0,0,.31.31.14.14,0,0,0,.09,0c.27,0,.66,0,.71.25s-.36.37-.59.53a2,2,0,0,1-.63.3.37.37,0,0,0-.3.43c0,.27.26.12.39.14a.53.53,0,0,0,.55-.23c.17-.28.41-.26.68-.23l-.43.39c-.15.13-.16.25,0,.34.34.17.09.34,0,.4-.48.25-1,.58-1.56.31-.06,0-.16,0-.24,0a.59.59,0,0,0-.59.23c-.12.21.18.3.23.48h0c-.42,0-.42,0-.54.61-.12-.35-.06-.82-.61-.72,0-.32-.28-.4-.4-.27-.37.37-.81.23-1.22.28-.13,0-.55-.11-.28.32l-.18.12c-.08,0-.12,0-.14-.07a.26.26,0,0,1,0-.19c.08-.18.07-.33-.15-.38s-.21-.05-.24.08.12.28.26.34c-.34.32-.74.23-1.14.21v0c-.15-.43-.69-.34-.88-.68.19,0,.43-.1.58.21a.25.25,0,0,0,.39,0c.25-.38.26,0,.38.14a1.23,1.23,0,0,1,0-.29c0-.2-.11-.5.07-.58s.15.28.32.37.13.13.25.13a3.23,3.23,0,0,0,1.68-.24c.09,0,.2-.15.29-.14a.84.84,0,0,0,1-.74c.09.44.41.54.69.69s.43,0,.39-.28.16-.26.25-.38.25-.25,0-.28-.52-.36-.59-.7a2.18,2.18,0,0,0-.09-.23c.13-.11.23,0,.32.09a.77.77,0,0,0,.88-.15.25.25,0,0,0,.12-.29c-.05-.12-.17-.08-.25-.07a.74.74,0,0,1-.82-.53c.37.07.6-.18,1-.36-.26-.08-.47-.22-.59-.16-.62.27-.33-.22-.26-.34s.14-.59.56-.63c.24,0,.36-.6.18-.75s-.13-.42.07-.55.44-.33.77-.2c.15.06.48.12.5-.18s-.23-.32-.47-.29h0c-.19-.07-.5.23-.59-.11s.32-.64.67-.68c0,.16-.34.12-.29.32a.37.37,0,0,0,.3.17c.22,0,.6.17.62-.21s-.32-.25-.55-.27Z"/><path class="cls-1" d="M6.94,38.2c0,.23-.2.21-.31.29s-.2.1-.17.2.21.11.29.07.28-.13.41-.06.27,0,.26.23-.13.24-.3.24-.29,0-.34.35c-.1.69.4.59.68.79.08.06.28-.05.23.15s-.05.24-.19.25-.33,0-.27.27a.39.39,0,0,0,.41.32c.21,0,.45-.1.55.22,0,.11.16.09.25.06s.18-.2.21-.31.13-.32.33-.35.12.39.37.38c-.3.68.17.55.56.51a2.19,2.19,0,0,1-1,.28.48.48,0,0,0-.51.25.46.46,0,0,1-.31.2,1.17,1.17,0,0,0-.81.45c-.19.2-.34.28-.56,0a.69.69,0,0,0-.76-.29c-.06,0-.14.06-.1.17a.67.67,0,0,0,.63.49c.3,0,.23.16.12.32a2.13,2.13,0,0,1-1.89,1.05,2.27,2.27,0,0,0-.55.12c.37.34.36.41-.08.67A2,2,0,0,1,2.8,46c-.32,0-.44.5-.82.55,0,0,.17.26.29.2.45-.22,1,.1,1.42-.34-.07.51-.56.2-.72.48.21.26.6-.32.75.17h0c-.17,0-.33-.09-.48,0-.34.3-.76,0-1.12.15-.13.07-.31,0-.31.28,0,.09-.16.21-.33.22a2.85,2.85,0,0,0-.77.05c-.11,0-.35-.31-.45-.51a1.76,1.76,0,0,1-.16-.42c.14,0,.25,0,.32,0s.27.1.36-.06.09-.2,0-.24-.28-.26-.4-.19c-.38.23-.3-.13-.44-.27.26,0,.22-.19.49-.35s.39-.49.87-.42a3.6,3.6,0,0,0,2.2,0c.18-.1.4-.17.34-.39s-.28-.23-.47-.2a1.52,1.52,0,0,0-.57.21c-.44.29-.68.23-1-.22,0-.06-.1-.11-.15-.08A.65.65,0,0,1,1,44.53c-.09-.06-.26-.06-.17.17s-.12.2-.25.21l-.08-.07c-.05-.33,0-.5.37-.72s.93-.22,1.34-.48c.1-.06.22,0,.3.1a1.24,1.24,0,0,0,1.22.09c.14,0,.41,0,.32-.3a.38.38,0,0,0-.49-.17,1.82,1.82,0,0,1-1.28-.06s0-.1.05-.1c.65.14,1.31-.2,1.94.06a.3.3,0,0,0,.43-.11c.17-.21-.1-.17-.15-.25s-.19-.12-.14-.22.07-.29-.07-.37-.22.14-.36.17L4,42.41c.27-.24.49-.72.91-.15.09.11.28,0,.38-.12s0-.2,0-.29a.59.59,0,0,0-.4-.2c.21-.07.36-.1.4-.3s.15-.6.62-.45.38-.21.44-.43-.18-.23-.34-.23-.32,0-.49,0c0-.14.14-.09.21-.1s.5.1.49-.2-.31,0-.46-.14c.12-.07.27-.1.31-.3s-.23-.2-.34-.37c.46,0,.71-.23.73-.69,0-.29.43,0,.5-.31ZM5.26,41.43a.67.67,0,0,0,.49.06c.23,0,.25.12.18.28s-.38.21-.19.38.28-.16.43-.21.26-.26.38-.4.14-.35-.17-.33-.41.09-.53,0C5.5,41,5.42,41.22,5.26,41.43ZM1.72,46.16c.12,0,.27,0,.26-.2s-.15-.44-.35-.43-.42-.06-.41.17A.44.44,0,0,0,1.72,46.16Zm7.43-4.44c-.1,0,0-.23-.21-.22a.35.35,0,0,0-.33.27c0,.14.1.22.24.21S9.08,41.84,9.15,41.72ZM6.33,39.26c-.12,0-.18,0-.18.19s0,.27.14.26a.31.31,0,0,0,.25-.31C6.55,39.25,6.44,39.27,6.33,39.26Z"/><path class="cls-1" d="M73.45,19.32a.15.15,0,0,1-.12.18c-.13.05-.2.14-.14.25s.18.08.29,0a.32.32,0,0,1,.45.09c0,.16-.2.15-.29.23a1.1,1.1,0,0,1-.2.11c.26.58-.74.82-.37,1.45.15.27-.18.45-.35.62-.49.5-.43.72.23,1l.22.09c.11,0,.23.1.18.23s-.16.06-.25.07a2.58,2.58,0,0,0-1.69.85c-.1.11-.3.29,0,.42s.61,0,.53.32a1.41,1.41,0,0,1-.6.76c-.14.09-.28,0-.43.12.2.21.75.41,0,.66,0,0,0,.12,0,.17,0,.33-.1.47-.42.49s-.34.11-.16.37a2.08,2.08,0,0,1,.26.81c.07.4-.95,1-1.36.85a6.06,6.06,0,0,1-.33-1.19c.38,0,.25-.31.24-.5,0-.35.17-.44.46-.44a1.61,1.61,0,0,0,1-.19c-.57.06-1-.37-1.67,0,.29-.63.36-1.2.86-1.61a1.22,1.22,0,0,1,1-.32c.1,0,.23.11.26-.05s-.14-.23-.21-.22c-.41,0-.38-.21-.35-.51s-.34-.09-.45-.25a.91.91,0,0,1,1.33-.32c.32.3.35,0,.43-.12s.06-.4.05-.61-.08-.19-.2-.1c-.38.3-.54,0-.69-.25a1.07,1.07,0,0,1,0-.89c.06-.19.33-.27.59-.2s.36-.08.35-.33,0-.29,0-.43h.28c.1,0,.19.19.28,0a.3.3,0,0,0-.06-.35c-.11-.12-.22-.25-.4-.13s-.27.27-.09.46c-.2-.05-.38.19-.63,0,.18-.05.33,0,.34-.3,0-.82.11-.89.93-.9a.94.94,0,0,0,.29,0c.22,0,.3-.17.1-.36s-.36-.18-.26-.43a.22.22,0,0,1,.26-.17c.23,0,.36.17.33.42,0,.05.11.1.17.15Zm-3.15,7c-.22,0-.41-.1-.52.11s0,.23,0,.26S70.17,26.6,70.3,26.34Zm.77-.94c-.26,0-.47-.11-.6.13,0,0,0,.11,0,.11C70.72,25.67,70.94,25.7,71.07,25.4ZM72.49,22a.45.45,0,0,0-.35-.18c-.11,0-.15.07-.12.16s.2.21.35.22S72.5,22.09,72.49,22Z"/><path class="cls-1" d="M33.08,41.65c-.47.51-1,.3-1.59.3a.17.17,0,0,1,.13-.25c.16,0,.35-.06.29-.23s-.34-.26-.45-.15c-.6.6-.86-.12-1.35-.29a.52.52,0,0,1,.69,0c.11.09.28.24.47.07s.09-.24.07-.36a.32.32,0,0,0-.39-.25c-.4.06-.82-.16-1.2.16-.12.1-.32,0-.4-.19s.09-.22.21-.29a.52.52,0,0,0,.1-.81c-.09-.07-.21-.09-.26.07a1.51,1.51,0,0,1-.15.28c-.22,0-.08-.18-.12-.27a1.77,1.77,0,0,0-.16-.3c.39.07.49-.12.44-.46a1,1,0,0,1,.1-.6c.14-.33.36-.38.65-.17a.42.42,0,0,1-.19.16.44.44,0,0,0-.26.46c0,.23.27.1.41.1.41,0,.81,0,1.22,0a.79.79,0,0,0,.68-.25,2.11,2.11,0,0,1,1.15-.6.55.55,0,0,1,.63.11c.28.31.55.57,0,.84-.1,0-.08.12-.09.2-.11.75-.11.76-.86.87-.49.07-.77.5-1.21.68-.13,0-.13.34,0,.41.46.21.77.72,1.36.65Z"/><path class="cls-1" d="M32.72,22.26a2,2,0,0,1-.38-.24.38.38,0,0,0-.42-.14c-.17.07-.05.25-.08.37h-.11c-.22-.73-.2-.76.44-1,.13-.05.32-.08.35-.34a2.74,2.74,0,0,1-.5,0c-.3-.07-.67-.09-.57-.56,0-.23-.19-.21-.28-.32A.64.64,0,0,1,31,19.7c0-.1.12-.18.25-.16s.28,0,.3-.17-.13-.27-.26-.31S31,19,31,18.83s.24-.17.4-.17l.67,0h0c-.22.22,0,.35.13.45a4.22,4.22,0,0,0,1.65.72c.86.14,1,.54.58,1.34,0-.5-.41-.42-.64-.45A1.3,1.3,0,0,0,33,21c-.13.08.21.76.39.8.77.18.77.18.64,1,0,.16-.06.32-.09.48s-.06.45-.43.3-.43.08-.55.33a1.6,1.6,0,0,1-.66.86.66.66,0,0,0-.37-.86.42.42,0,0,1-.2-.5c.05-.25.26-.12.39-.13.37,0,.55-.33.57-1,.14.05.23-.08.34-.11a.24.24,0,0,0,.13-.18c0-.13-.14-.09-.2-.15s-.2,0-.23.08A1.5,1.5,0,0,0,32.72,22.26Z"/><path class="cls-1" d="M39.87,13.53c-.25.1-.36.12-.41.36s-.48.2-.75.27a4.29,4.29,0,0,1-.72,0c-.39,0-.5-.11-.38-.47.77.25.77.25,1.16-.4H37.56l-.14,0c-.16.81-.59,0-.87.14-.07,0-.17-.14-.13-.27s.13-.06.22,0a.37.37,0,0,0,.23,0c.13-.07.37,0,.39-.18s-.14-.27-.32-.3-.32-.08-.19-.28a1.08,1.08,0,0,0,.15-1c0-.11,0-.23.17-.27,0,.42.16.56.59.37a2.07,2.07,0,0,1,.7-.09c.51,0,.74-.34,1.11-.71a5.32,5.32,0,0,0-2.06.18,1.06,1.06,0,0,1,.83-.37c.23,0,.34-.07.21-.3s-.08-.29.11-.36A.36.36,0,0,1,39,10c.37.24.7.54,1.07.76.17.1.44,0,.67,0a.38.38,0,0,1,.35.18.33.33,0,0,1-.15.42A5.07,5.07,0,0,1,38,12.73c-.13,0-.29,0-.3.15s.13.14.26.15a1.69,1.69,0,0,1,1.3.45C39.37,13.56,39.59,13.51,39.87,13.53Z"/><path class="cls-1" d="M96.47,44.63c.3,0,.59-.16.85.16s.47-.06.71,0c.08-.35.24-.14.43-.09s.6-.1.84,0c.7.12,1.38-.33,2.08,0a.14.14,0,0,0,.2-.13c0-.13-.07-.15-.18-.15l-.31,0c.08-.3.3-.34.54-.37.43-.06.57-.39.27-.69s-.16-.6-.1-.91a.16.16,0,0,1,.26-.11c.16.11.35.05.52.05.39,0,.47-.15.29-.5h0a.76.76,0,0,1,.32.08c.12.07.27.11.25.3s-.2.19-.33.21a2.65,2.65,0,0,1-.74.11c-.15,0-.35-.07-.44.1s.11.28.21.37.11.35.36.31c.05,0,.14.1.15.17a.18.18,0,0,1-.17.2c-.18,0-.32.07-.3.28a.38.38,0,0,0,.28.3c.24.06.27-.16.36-.3s0-.16.13-.18l.08.07c0,.32-.26.52-.5.74a.42.42,0,0,0,.65-.23c.18.22,0,.34-.1.38a1,1,0,0,1-.91,0c-.17-.1-.35-.22-.52,0-.06.1-.23.06-.35,0a.56.56,0,0,0-.42,0c-.17,0-.2.22-.24.34s.16.19.25.21c.25.06.5.24.77,0a.24.24,0,0,1,.23,0c.32.34.73.14,1.19.2-.29.13-.59.1-.72.37.11.2.35,0,.46.17a13.13,13.13,0,0,0-1.61.52h0c-.11-.37.08-.44.4-.41.16,0,.41.06.43-.17s-.15-.28-.35-.32-.38-.13-.57-.18-.3-.05-.35.09c-.19.55-.27.13-.47,0s-.35-.63-.81-.24a.6.6,0,0,1-.81-.2c-.07-.1-.1-.26-.25-.22s-.13.19-.17.31.12.19.2.24.17.09.2.26c-.2-.08-.48.28-.54-.2,0,0-.07-.05-.1,0-.6.11-1.22-.29-1.8.13-.18.14-.71-.27-.66-.49s.27-.25.48-.18.52.09.45-.32Z"/><path class="cls-1" d="M75.13,14.18a5.49,5.49,0,0,0-1-.55c-.34-.13-.11-.25,0-.51a2.68,2.68,0,0,0,.35.44c.07,0,.35.22.28-.14v-.05c.25-.42.25-.42-.33-.45a.58.58,0,0,1-.14,0c.09-.61.29-.7,1-.45h-.43c-.15,0-.33,0-.33.19s.19.17.32.2h.29c.14,0,.36.1.42-.09s-.24-.15-.29-.31c.44.2.6,0,.69-.42-.64-.23-.61-.21-.39-.83.13-.37.4-.22.53-.16s.38,0,.59-.14c-.22-.14-.51-.09-.62-.37a.43.43,0,0,1,.23-.63c-.11-.08-.17-.14-.24-.15s-.37-.06-.36-.22.19-.45.43-.43c.82.05.83-.77,1.26-1.14.09-.07-.19-.12-.09-.25h0a2.78,2.78,0,0,1,.73.15c.1.06.07.31-.1.41s-.29.06-.39.14-.46.2-.51.41.26.24.4.36.19.43,0,.6-.25.13-.16.36c.21.55.08.73-.51,1-.35.16-.74-.05-1.1.22.46.17.73.58,1.17.74a.25.25,0,0,1,.19.19c0,.13-.12.16-.22.21-.38.18-.9.22-.86.83,0,0-.07.1-.1.09-.28,0-.65.11-.61.28s-.11.37,0,.55Zm1.73-4a.25.25,0,0,0-.25-.16c-.12,0-.23.09-.21.22s.16.18.3.17S76.89,10.37,76.86,10.17Z"/><path class="cls-2" d="M135.83,22.72c-.06.21-.28.08-.38.32-.18.45.1.45.33.57s.13.35-.06.39c-.81.17-1.32.82-2,1.17-.34.17-.85.1-.94.65,0,0-.17,0-.27,0a1.22,1.22,0,0,0-.8.18c.24-.35.29-.64.74-.61.24,0,.51-.31.87-.38l-.12-.06c-.19,0-.46.09-.52-.13s.14-.36.27-.52a11.71,11.71,0,0,1,1.72-1.5c.15-.13.35-.33.6,0S135.61,22.66,135.83,22.72Zm-.9.88c-.07-.13-.11-.21-.29-.13s-.4.45-.55.72c0,.07-.21.07-.14.21s.24.12.35.08C134.68,24.32,134.64,23.84,134.93,23.6Z"/><path class="cls-2" d="M109.73,44.86a.29.29,0,0,0,0,.48c.1.12.18.34.42.16.06,0,.19,0,.28,0,.62,0,.71-.12.53-.71a.8.8,0,0,1-.06-.2c.37.49.84.33,1.35.22-.13.18-.22.33-.33.46s-.26.07-.22.21.2.12.33.12h.82a.4.4,0,0,0,.43-.25.38.38,0,0,0-.13-.51,4.43,4.43,0,0,0,1,.08,1.16,1.16,0,0,0,.93-.33c-.19.39.08.52.29.67-.55.23-1.16-.06-1.7.31.54,0,1.08,0,1.62,0l.42-.05c.12,0,.18,0,.23-.19.08-.45.53-.27.85-.29s.45.25.62.46c0,0-.06.18-.13.23s-.12-.08-.17-.12a1,1,0,0,0-.67-.19c-.12,0-.24,0-.3.12s.14.14.14.27c-1.49,0-3,0-4.46,0a7.38,7.38,0,0,0-1.25-.17c-.17,0-.35,0-.5.12a.2.2,0,0,1-.33,0c-.22-.31-.71-.31-.85-.72,0-.06-.16-.07-.24-.12.34,0,.66-.35,1-.05Z"/><path class="cls-1" d="M57.05,24.34a.58.58,0,0,1,.49-.27c-.37-.47-.37-.5.17-.84a.17.17,0,0,0,0-.31c-.26-.23-.17-.48,0-.7a6.75,6.75,0,0,1,.67-.83c.15-.16.4-.22.24-.52,0,0,.07-.18.15-.22s.09.1.14.15a1,1,0,0,0,.93.3c.17,0,.42-.09.48.18s-.19.22-.32.33a2.78,2.78,0,0,0-.77.69c-.38.62-.85,1.21-1.29,1.8-.2.27-.53.22-.81.3Zm2-2.67c-.43-.26-.61.08-.86.21s-.08.18,0,.28.17,0,.23,0Z"/><path class="cls-2" d="M133.06,44.73c.27.28.6.19.9.12a1.2,1.2,0,0,1,.65,0,2.64,2.64,0,0,0,1.55.05.45.45,0,0,1,.59.18c.1.24.27.2.43.18s.19-.21.2-.38-.1-.39.18-.33,0,.22,0,.34,0,.35,0,.58c.21-.21.3-.45.62-.52a1.57,1.57,0,0,1,.78,0,.33.33,0,0,1,.22.52c-.12.28-.26,0-.41,0s-.45-.26-.46.18c0,.12-.16.07-.25.07l-4.32,0a.3.3,0,0,1-.3-.15c-.28-.38-.41-.35-.61.11a1,1,0,0,1,.14-.93Zm1.21.16a.67.67,0,0,0-.55.55c0,.41.3.12.47.14s.39,0,.58,0,.26,0,.35-.12.15-.09,0-.18-.12-.09-.16-.07c-.3.15-.52.13-.58-.26C134.43,44.92,134.32,44.91,134.27,44.89Zm2.76.65c-.44,0-.86-.29-1.29,0Z"/><path class="cls-1" d="M80.74,24.94c0,.12-.23.23-.07.36a.31.31,0,0,0,.43,0c.41-.3.82-.58,1.25-.85.1-.06.25-.25.4,0s-.07.29-.18.36c-.29.19-.72.47-.66.68s.59.41.93.56c-.16.46-.49.35-.85.26-.68-.18-.89-.06-1.16.56a.93.93,0,0,1-.66.56l-.86.24-.06-.08c.07-.15.22-.1.34-.13.39-.09.41-.2.15-.49s.07-.47.19-.67.21-.13.3-.21.32-.23.19-.51a.43.43,0,0,1,.24-.65Z"/><path class="cls-1" d="M160,45.67c.31-.28.29-.33-.23-.74.47-.08,1,.38,1.49,0,.08.17.18.51.46,0,.11-.2.21-.16.36,0a.41.41,0,0,0,.37.15c.19,0,.22-.23.27-.37s-.17-.07-.26-.22c1.43.25,2.83-.1,4.21.25-.15.08-.36.12-.43.34s-.17.2-.33.2-.14-.17-.16-.28-.07-.17-.13-.17a.16.16,0,0,0-.14.21c.05.19,0,.35-.22.33s-.5,0-.57-.27-.07-.24-.23-.21-.31-.11-.36.12-.33.38-.62.37-.45,0-.68,0-.41.06-.38.4c-.22-.45-.68-.24-1-.45s0,.29-.18.41a.51.51,0,0,0-.76,0c-.07.08-.18.05-.27,0Z"/><path class="cls-1" d="M78.74,44.5c-.26.36-.29.83-.8.84a.3.3,0,0,0-.13.14c-.24.36-.32.38-.72.17a.43.43,0,0,0-.53,0c-.14.12-.36.19-.41.07s.16-.28.33-.34.16,0,.21-.08a.2.2,0,0,0,0-.36c-.16-.1-.39-.11-.45.1-.1.36-.35.34-.62.34a1.92,1.92,0,0,0-1.38.25c-.17.14-.28,0-.4-.15s-.27-.27-.23-.44.18-.18.36-.12.58.18.6-.3c0-.1.06-.1.16-.09a8.25,8.25,0,0,0,2.43.08,1.26,1.26,0,0,1,.85.07C78.22,44.8,78.43,44.58,78.74,44.5Z"/><path class="cls-1" d="M101.2,46.56c0,.13-.17.06-.24.1a2.72,2.72,0,0,0-.24.24c.1.08.15.22.3.23.46,0,.81.43,1.29.4.09,0,.16,0,.1.14s0,.43-.19.6a.79.79,0,0,1-.17-.14.69.69,0,0,0-1.1.08c-.1.22.11.37.18.55s.31.24.54.22.32-.26.38,0a.8.8,0,0,1-.24.75c-.07.06-.16,0-.25-.11-.35-.46-.67-.49-1.06-.09a.77.77,0,0,1-.69.22c-.1,0-.25,0-.23-.15s-.07-.2,0-.26.17,0,.23.1c.22.23.36.07.52-.09s.59-.16.58-.39-.4-.1-.6-.2-.21-.31-.46-.2c-.07,0-.09-.15-.06-.18s.18-.43.34-.54.19-.23.07-.33-.1-.28,0-.4c.25-.3.44-.73,1-.55Z"/><path class="cls-2" d="M147.66,45.08c.17.7.17.7-.63.7h-1.22a.93.93,0,0,1-.68-.14.39.39,0,0,0-.53.07c-.07.08-.2.11-.25,0s0-.18.12-.26.4,0,.25-.27-.3-.06-.41.1-.24.07-.37.07-.28,0-.23.2.07.21-.11.18-.31.09-.25-.14,0-.11-.09-.15c-.23-.13-.71,0-.58-.54a1.27,1.27,0,0,1-.57-.33,2.21,2.21,0,0,1,.95.18,2.34,2.34,0,0,0,.67.2c.26,0,.39-.1.18-.39.41,0,.63.42,1,.45a.87.87,0,0,0,.59-.15c.19-.13-.18-.19-.09-.35.12,0,.22-.07.35.17s.6.19.92,0c.07,0,.12-.11.18-.16s.28-.06.42-.05.1.06.06.14a.32.32,0,0,1-.35.23c-.4,0-.25.29-.3.48a.88.88,0,0,0-.69-.07,1.08,1.08,0,0,0,1.2.18c-.16-.08-.39.09-.52-.12a1.16,1.16,0,0,0,1-.29Z"/><path class="cls-2" d="M67.63,45.73c.21-.25.51-.15.76-.14a1,1,0,0,0,.9-.36c.18-.25.6-.13.71-.49.62.55,1.09-.12,1.69-.23,0,.11,0,.23-.11.28a.21.21,0,0,0,0,.32c.12.21.22,0,.31,0a1.94,1.94,0,0,1,1.1-.11c.3.09.34.21.34.46s-.09.31-.32.18-.37-.19-.61.13c0,0-.13,0-.2,0l-4.52-.06Z"/><path class="cls-2" d="M177.05,27c-.14.21,0,.32.3.47-.64,0-1.12,0-1.61,0-.8,0-1.61,0-2.42,0a1.8,1.8,0,0,1-1.41-.69c.31,0,.57-.07.76.19s.27.29.43.09.15-.34-.11-.45a.17.17,0,0,1-.09-.24h0a8.59,8.59,0,0,0,2.62.22.28.28,0,0,1,.29.09,1.41,1.41,0,0,0,1.27.35Z"/><path class="cls-1" d="M102.87,41.77h-.8l.21-.7c-.21,0-.34.18-.57.11.22-.24,0-.7.45-.82-.19-.69.51-.92.74-1.39.13-.26,0-.34-.23-.42s-.23-.33,0-.42a3.26,3.26,0,0,0,.63-.3.22.22,0,0,1-.16.26c-.14,0-.23.13-.21.28s.21.1.31.11.29,0,.33.14-.06.18-.15.26-.34.41,0,.7.1.63.08,1-.26.31-.48.3c.08-.15.21-.3,0-.45s-.09-.16-.18-.1a.59.59,0,0,0-.2.25c0,.28.17.29.38.29-.09.15-.25.17-.38.23s-.34.17-.3.41.22.23.4.24c0,0,.06,0,.1.08Z"/><path class="cls-1" d="M54.74,52.42c0-.25.28-.18.23-.35s-.24-.1-.34-.07a.87.87,0,0,1-1-.55,1.18,1.18,0,0,1-.15-.9c.08-.24.37-.12.55-.09a1.43,1.43,0,0,0,.46.07c.09,0,.29,0,.1-.2s0-.08,0-.08.24,0,.26,0c.05.29.38.5.26.82s0,.22.14.28.11,0,.14,0c.18.18.5.3.48.58s-.4.28-.65.28A.78.78,0,0,0,54.74,52.42Z"/><path class="cls-2" d="M145,29.74c.45-.11.89.22,1.36,0a5.42,5.42,0,0,1,2.91-.1c.14,0,.13.06.06.21s.2.27.29.46c-1.77,0-3.53-.12-5.28.07v-.14c.24,0,.48,0,.72,0s.36.13.4-.12-.14-.29-.34-.29-.12,0-.11-.1Zm1.06.32c.29.26.46,0,.67-.08C146.45,29.69,146.27,29.93,146,30.06Z"/><path class="cls-1" d="M99.54,54.81a.22.22,0,0,1,.25.11c.16.43.42.3.7.12,0,.19-.12.34-.14.5s-.16.21-.34.15c-.48-.15-.74,0-.75.54a.57.57,0,0,1-.27.52,1.51,1.51,0,0,0-.82.91,1.66,1.66,0,0,0,.66.18c.1,0,.21.1.31.16s-.09.26-.18.3-.38.49-.57.31-.76-.43-.43-.94c-.25-.14-.31.17-.5.15,0-.14.08-.19.15-.24s.39-.1.13-.34c.15-.14.26-.36.47-.38.47,0,.63-.32.73-.72s-.31-.38-.46-.61a1,1,0,0,1,.69-.23c.37,0,.45-.19.38-.51Z"/><path class="cls-1" d="M57.42,53.06c.33,0,.68-.09,1,.18.06.06.22,0,.33,0s.49,0,.53-.29-.31-.13-.52-.35a6.89,6.89,0,0,0,1.86.13c-.28.3-.49.52-.85.34-.08,0-.15,0-.18.07s-.27.21-.44.19a9.75,9.75,0,0,0-1.7.21c-.23,0-.41.17-.21.47-.71-.18-1.09-.79-1.68-1.08.49-.43.55-.53.88-.34s.83,0,1,.45a5.61,5.61,0,0,0-.58,0c-.11,0-.23.09-.19.21a.35.35,0,0,0,.21.15C57.05,53.29,57.35,53.34,57.42,53.06Z"/><path class="cls-2" d="M89.7,45.77a8.89,8.89,0,0,1,1.24-.2c.11,0,.33,0,.31-.2s-.25-.23-.39-.16a1.62,1.62,0,0,1-1,.08.68.68,0,0,0-.57.08.27.27,0,0,1-.38-.11.23.23,0,0,1,0-.27c.13-.15.22,0,.33,0,.39,0,.81.3,1.18-.09a.42.42,0,0,1,.42,0,3,3,0,0,0,1.78-.1.35.35,0,0,1,.36.07c.15.14,0,.25,0,.34a.82.82,0,0,1-.75.54C91.35,45.78,90.52,45.77,89.7,45.77Zm2.86-.67c-.22.29-.69.09-.88.47C92.09,45.59,92.47,45.61,92.56,45.1Z"/><path class="cls-1" d="M147.68,45.09c.32-.2.68-.05,1-.09.16,0,.33,0,.49,0,.57,0,1-.6,1.72-.13.49.34,1.18.07,1.8.14a.71.71,0,0,1-.62.29,1.08,1.08,0,0,0,1.19.21c0,.22-.13.27-.33.27l-1.91,0a1.26,1.26,0,0,0,.77-.62.79.79,0,0,0-.57,0c-.25.13-.51.26-.73-.1a.4.4,0,0,0-.53,0c-.3.34-.7.16-1,.26-.49.17-.84-.28-1.29-.22Z"/><path class="cls-1" d="M60.33,19.72l-.15-.23c0-.07.07-.06.11,0s.44.23.51-.07-.18-.37-.41-.42a.35.35,0,0,1-.33-.32.34.34,0,0,1,.25-.35,1.88,1.88,0,0,1,.58,0c.21,0,.44.23.54-.16,0-.12.16-.05.25,0s.34,0,.4-.15-.09-.22-.24-.3-.32-.37-.6-.39c.54-.32.79.23,1.18.35.19.06,0,.55-.33.65a1.06,1.06,0,0,0-.6.42c-.19.29-.6.52-.05.84.08.05,0,.12,0,.14-.25.13-.39.42-.7.45h0c0-.1.18-.2,0-.32a.25.25,0,0,0-.34,0Zm.57-.83s0-.06,0-.19c0-.3-.31-.2-.46-.31s-.2.05-.19.14S60.5,18.88,60.9,18.89Z"/><path class="cls-1" d="M122.08,45.64c-.56-.46-.69-.27-.8.12a.59.59,0,0,0-.32-.47c-.08,0-.19-.08-.17-.14.19-.44-.14-.32-.35-.35s-.42,0-.39.36c0,.13-.08.3-.28.17s-.29,0-.43.09c0-.54.23-.78,1-.81.5,0,1,0,1.5,0a1.39,1.39,0,0,0,.82-.14C122.59,45,122.09,45.19,122.08,45.64Z"/><path class="cls-2" d="M160,45.67l.21.09h-4.71c0-.19.15-.18.27-.18.34,0,.68,0,1,0,.49,0,.68-.34.43-.77h1.2a.71.71,0,0,1,.47.25A2,2,0,0,0,160,45.67Zm-2.48-.15c.54.13,1,0,1.5.15,0,0,.1,0,.1-.07a.15.15,0,0,0-.11-.18C158.56,45.36,158.08,45.13,157.55,45.52Z"/><path class="cls-1" d="M23.89,34a1,1,0,0,0,.34-.78c0-.47.32-.56.69-.62s.59,0,.79-.26c0-.13-.1-.1-.16-.12s-.27.08-.32-.1a.18.18,0,0,1,.07-.21c.14-.1.24-.05.38,0,.54.33.68.26.71-.31h1.06c-.21.42-.64.47-1,.57a1.4,1.4,0,0,0-.65.37c-.53.48-1.07.94-1.61,1.42A.32.32,0,0,1,24,34Z"/><path class="cls-1" d="M106.92,25.66c.31.05.19-.34.41-.38h0c-.08.46.44.29.58.56-.17,0-.4-.19-.47.1s.5.59.71.6.06-.2.2-.39c.06.28.14.51-.12.57a2.27,2.27,0,0,0-1,.64c-.11,0-.1-.11-.08-.16s.15-.19,0-.29-.23,0-.31.08c-.29.23-.56.27-.8,0a.31.31,0,0,1,.11-.5c.29.42.61,0,.9,0,.12,0,.09-.18,0-.29s-.2,0-.28,0a2.69,2.69,0,0,1-.67.3c0-.29.21-.26.35-.3s.43-.21.44-.5Z"/><path class="cls-1" d="M80.76,44.78c-.08.35-.15.7-.65.67a1.43,1.43,0,0,0,1.18,0c.27-.14.53-.22.74-.06.37.29.84.08,1.21.31-.41,0-.82,0-1.24,0s-1.14.08-1.71,0c-.31,0-.79.25-.81-.41,0-.12-.23-.09-.34,0s-.18.12-.21,0a.15.15,0,0,1,.12-.21c.3-.08.29-.31.23-.56.39.72,1,.29,1.49.27Z"/><path class="cls-2" d="M107.41,44.83c-.19.52-.49.62-.87.3-.18-.15-.44-.21-.51-.1-.22.31-.81.11-.84.67,0,.11-.28.06-.38-.07a3.59,3.59,0,0,1-.25-.49c-.1.29-.09.56-.42.6s-.31-.34-.6-.24c.06-.21.19-.2.31-.22.28,0,.56-.12.65-.45,0-.13.1-.26.26-.19a.22.22,0,0,1,.11.32c0,.08-.14.18,0,.22s.23.07.3-.07c.14-.3.45-.32.69-.45a.57.57,0,0,1,.66,0A.8.8,0,0,0,107.41,44.83Z"/><path class="cls-1" d="M104.38,34.91c.24,0,.58,0,.58.21s-.41.47-.69.64c-.08.05-.23-.06-.25.13a.38.38,0,0,0,.16.38.61.61,0,0,1-.06,1,1.38,1.38,0,0,1-.48.19c.44-.31,0-.62,0-.88.07-.64-.38-.4-.63-.5,0-.36.31-.48.49-.7a.19.19,0,0,1,.29,0c.24.28.53.09.7,0,.41-.25,0-.38-.15-.54Z"/><path class="cls-2" d="M138.93,29.84c.23-.4.63-.22.91-.18a27.7,27.7,0,0,0,2.88.08h.18c-.05.19-.2.1-.31.1H140.8c-.15,0-.33-.06-.45.1.11.22.31.19.5.19h1.65a.53.53,0,0,1,.52.26h-4.21a.32.32,0,0,1-.32-.15c-.07-.17.15-.1.2-.2s.16-.14.25-.21c0,.57.08.62.58.34a2,2,0,0,1,.6-.18A1.11,1.11,0,0,0,138.93,29.84Z"/><path class="cls-2" d="M99.52,52.37c-.12.37-.1.7.3.88s.2.33,0,.44a1.14,1.14,0,0,1-.86.12c.1.21.33.39,0,.53l-.08-.08.06-.16c-.55-.22-.43-.67-.34-1.08s.57-.5.93-.64Z"/><path class="cls-2" d="M154.83,42.25c.26.33.55.56.93.36a1.39,1.39,0,0,0,.81-1.27,1.16,1.16,0,0,1-.11,1.36c-.25.36-.58.24-.94.16a1,1,0,0,0-.93.26.82.82,0,0,1-.78.17.24.24,0,0,1-.18-.3c0-.15.11-.21.3-.18C154.33,42.86,154.76,42.87,154.83,42.25Z"/><path class="cls-1" d="M153.76,45.75c.13-.25.13-.24-.1-.51a.19.19,0,0,1,0-.18.78.78,0,0,1,1.11-.35c.27.21.54.42.75-.07a1.9,1.9,0,0,0,.59,0c-.15.16-.54.09-.25.43.13.15-.37.46-.73.36a4,4,0,0,1-.6-.13c-.24-.11-.38,0-.39.22S154,45.77,153.76,45.75Z"/><path class="cls-1" d="M112.3,24.22a1.76,1.76,0,0,1,1.69-.7c.42,0,.83,0,1.3,0a3.53,3.53,0,0,1-2.71.68h-.28Z"/><path class="cls-1" d="M73.59,19.19c.27-.77.23-.81-.59-.83a.63.63,0,0,0-.59.24.14.14,0,0,1-.21,0c-.1-.07,0-.16,0-.21A1,1,0,0,1,72.9,18c.22,0,.54,0,.54-.44a.73.73,0,0,0,.7.47c.23,0,.37.19.4.44s-.22.2-.35.24c-.31.08-.26.46-.52.57Z"/><path class="cls-2" d="M54.77,48.43c0,.45.11.93-.47,1.14l0,0c-.15.09-.06.54-.36.35s-.87-.33-.28-.83c.07-.06,0-.2-.1-.29s0-.37,0-.55c.08,0,.2-.34.25,0a.24.24,0,0,0,.23.21.31.31,0,0,1,.12,0c-.18.11-.32.24,0,.32a.52.52,0,0,0,.62-.31l.08-.12Z"/><path class="cls-1" d="M140,44.9c.06-.16.19-.09.29-.09a11.69,11.69,0,0,0,1.45,0c.1,0,.27-.06.31.06.11.37.45.54.8.89-.31,0-.48,0-.64,0s-.21,0-.13-.16-.08-.21-.2-.21a5.44,5.44,0,0,0-1.6.19c-.24.06-.44.08-.58-.2s-.16-.45.31-.49c-.17.31-.23.55.27.5h.34c.13,0,.27,0,.25-.19s0-.29-.24-.3Z"/><path class="cls-2" d="M99.53,58.94c-.24.57-.24,1.19-.43,1.76,0,.14-.08.25-.28.24-.42,0-.84,0-1.26,0a.3.3,0,0,1-.22-.06c-.07-.11,0-.18.12-.23s.35-.41.71-.21.86-.41,1-.76A1.22,1.22,0,0,1,99.53,58.94Z"/><path class="cls-1" d="M129.43,44.85c-.43.56-.44.56-.92.18a.54.54,0,0,0-.56,0c-.2.07-.11.26-.09.37a.37.37,0,0,0,.38.31,1.13,1.13,0,0,1,.41,0c-.32-.06-.76.35-1-.25,0-.13-.2-.12-.33,0s-.39,0-.45-.21.19-.28.29-.29a1.85,1.85,0,0,0,.91-.35c.17-.11.37-.14.47,0C128.78,45,129.08,44.9,129.43,44.85Z"/><path class="cls-1" d="M173.38,44.9c-.29.4-.54.55-.88.16-.17-.19-.4-.12-.59,0a1.73,1.73,0,0,1-1.77.06c-.17-.08-.43.09-.53-.19a4,4,0,0,0,1.88,0c.5-.19.95-.5,1.45,0C173,45,173.19,44.9,173.38,44.9Z"/><path class="cls-2" d="M16.27,40.13a5,5,0,0,1,1.91-1.46l1.46-.78a.38.38,0,0,1-.24.46,20.26,20.26,0,0,0-2,1.11c-.38.22-.73.49-1.09.74A.18.18,0,0,0,16.27,40.13Z"/><path class="cls-1" d="M12.26,40c0,.17-.17.17-.26.2s-.51.05-.45.47c0,.22-.25.36-.46.5-.49.31-1,.05-1.49.07a1.37,1.37,0,0,0,1.4-1,.39.39,0,0,1,.46-.24,2.74,2.74,0,0,0,.81,0Z"/><path class="cls-2" d="M165.35,25.32a3.13,3.13,0,0,0,1.24-.68c.54-.44.59-.52,1.12-.2-.22.17-.59.19-.57.6,0,.09-.09.12-.17.12A6.7,6.7,0,0,1,165.35,25.32Z"/><path class="cls-1" d="M99.53,52.38c.08-.24.56-.06.47-.38s-.42-.19-.66-.2-.25.05-.3-.15.13-.24.22-.28a1.16,1.16,0,0,1,.84,0c.38.12.56.1.53-.39.4.63-.21,1.36-1.11,1.42Z"/><path class="cls-1" d="M93.61,44.46c.16.54.45.6.92.49.18,0,.67-.12.73.36a.33.33,0,0,1-.09.31c-.15.14-.25,0-.34-.06-.31-.15-.29-.16-.46.12s-.33,0-.49.08-.22-.1-.17-.2c.2-.36,0-.63-.18-.9C93.51,44.64,93.56,44.58,93.61,44.46Z"/><path class="cls-2" d="M44.83,6.45c.36-.18.59-.68,1.14-.28.3.22.7,0,1-.19a.2.2,0,0,0,.1-.24c0-.15-.15-.08-.23-.1s-.36.08-.54.13a.2.2,0,0,1-.28-.14c0-.15.09-.21.21-.18a7.52,7.52,0,0,0,.94.11c.17,0,.14.52-.05.65a.83.83,0,0,1-.48.19A16.09,16.09,0,0,1,44.83,6.45Z"/><path class="cls-2" d="M91,41.94a7,7,0,0,1-2.21.34c-.17,0-.34,0-.34-.25s.19-.13.3-.14A4.28,4.28,0,0,1,91,41.94Z"/><path class="cls-1" d="M85,22.17a5.43,5.43,0,0,0,2.12.18c.24,0,.46.11.43.32s-.27.12-.46.09c-.41-.07-.81.15-1.23.08-.1,0-.39.11-.15-.2.05-.06-.08-.17-.17-.18A1.06,1.06,0,0,1,85,22.17Z"/><path class="cls-2" d="M47.51,41.12c.11.36-.14.6-.35.79a.51.51,0,0,1-.73,0s0,0-.08,0a1.54,1.54,0,0,1,0-.17c0-.15.1-.35,0-.45a.32.32,0,0,0-.39.1c-.13.16-.17,0-.23-.08s.1-.1.15-.14.4-.18.28-.52a1,1,0,0,0,1.27.35Zm-.62.47c.18,0,.39,0,.41-.22s-.2-.15-.32-.16-.4-.06-.43.17S46.73,41.6,46.89,41.59Z"/><path class="cls-1" d="M81.67,24.14c.34-.46.9-.35,1.36-.52a.49.49,0,0,1,.24,0c.24,0,.47-.07.48-.28S83.54,23,83.3,23a.73.73,0,0,1-.18,0c.22-.17.61-.11.6-.55,0,.32.14.39.42.29a.84.84,0,0,1,1,.09,6.3,6.3,0,0,0-.76,0c-.28,0-.53.11-.49.49s-.12.48-.42.47a2.91,2.91,0,0,0-1.71.4Z"/><path class="cls-2" d="M1.31,48.56c.18.56.4.63.81.42.07,0,.16-.17.22,0s.06.26-.13.3c-.44.09-.88.2-1.33.28-.28,0-.44-.13-.53-.37,0-.07-.1-.13,0-.22s.13,0,.21,0C.85,49.1,1.16,49.19,1.31,48.56Z"/><path class="cls-1" d="M125.23,45.09c.57-.27.8.22,1.11.51.08.07.06.18,0,.16s-.44-.1-.42-.38c0-.08.06-.16-.06-.18s-.21,0-.2.13c.06.49-.25.47-.59.46a5.24,5.24,0,0,0-1,0c-.42.05-.57-.1-.47-.5H124c0,.17.06.3.24.3a5.62,5.62,0,0,0,1.28-.06l-.31-.36Z"/><path class="cls-2" d="M5,12.55c0,.39,0,.73.55.68.26,0,.35.37.67.32-.2.15-.32.6-.64.13-.1-.16-.25,0-.38,0s-.5.13-.26-.3c.14-.24-.24-.21-.32-.38s-.42-.48.17-.43c0,0,.09-.08.14-.12Z"/><path class="cls-1" d="M75.4,16.94c.09.32-.09.42-.34.45a1.5,1.5,0,0,1-1-.21c-.32-.17-.31-.36,0-.55a1,1,0,0,1,.95,0c-.08.16-.38-.06-.37.14s.22.25.39.34S75.26,17,75.4,16.94Z"/><path class="cls-2" d="M62.73,18.81c-.21.53-.41,1.07-.62,1.61-.06.14-.08.31-.3.34s-.25.11-.1.32-.08.35-.19.46-.12-.12-.21-.17c-.24-.14,0-.21.08-.32.24-.57.85-.95.84-1.67a.6.6,0,0,1,.44-.63Z"/><path class="cls-1" d="M56.92,24.48a.21.21,0,0,1-.05.22c-.24.26-.18.42.17.47.16,0,.31.07.26.24s-.22.34-.36.23c-.44-.34-.73-.18-1,.21,0,.07-.17.08-.26.11h0c0-.36.41-.58.41-1,0,0,.1,0,.12,0,.2.32.19.13.23-.07a.52.52,0,0,1,.47-.46Z"/><path class="cls-2" d="M7.81,5c-.16.28-.56.27-.7.6-.06.15-.23,0-.32,0a.46.46,0,0,0-.58-.06c-.49.5-.57.09-.67-.29.28,0,.61.2.82-.19.1-.17.17,0,.24.07s.27.31.44.11A.73.73,0,0,1,7.82,5Z"/><path class="cls-2" d="M85,45.73a1.24,1.24,0,0,0,.43-.38.29.29,0,0,1,.51,0c.12.34.36.28.58.26.46,0,.92.16,1.39,0,.08,0,.16,0,.18.15Z"/><path class="cls-2" d="M59,54.41h1.14a3,3,0,0,1-2.31.56c.18-.4.58-.2.82-.35.08,0,.22.05.3-.06s0,0,0,0l0,0Z"/><path class="cls-2" d="M139.52,23.72c-.3.51-.86.39-1.3.55-.15.05-.08-.1-.06-.14s-.3-.16-.09-.32.61-.58,1.06-.2a1.17,1.17,0,0,0,.4.12Z"/><path class="cls-1" d="M67.63,45.73h0c-.44.1-.77,0-.85-.48,0-.14-.21-.12-.17-.22s.19,0,.28,0,.29,0,.38,0c.35-.22.53,0,.73.25C67.88,45.4,67.39,45.31,67.63,45.73Z"/><path class="cls-2" d="M4.67,46.79A2.31,2.31,0,0,0,4,47.86c-.05.28-.43.29-.64.45s-.12-.09-.21-.12,0-.12,0-.16a1,1,0,0,1,.3-.23A.48.48,0,0,0,3.73,47h0c.11,0,.3,0,.33-.11.09-.36.35-.17.54-.2Z"/><path class="cls-1" d="M29.4,28.27a7,7,0,0,1,1.68-.74,2.4,2.4,0,0,0-1.29-.21,1.67,1.67,0,0,1,1.23,0,.3.3,0,0,1,0,.48c-.47.28-.88.74-1.52.55Z"/><path class="cls-1" d="M77.58,5.66c.11.15.2.35.39.25s.45-.15.46-.43,0-.3.21-.32c.48-.08.15-.24,0-.39h.21c.27,0,.64-.08.7.25s-.34.2-.53.27a.78.78,0,0,0-.52.48c-.09.2-.27.44-.55.35S77.49,6,77.58,5.66Z"/><path class="cls-1" d="M82.62,44.9c.51.1,1,.22,1.46.28.26,0,.55.08.74-.2s.38.05.56-.06.07.13,0,.18c-.24.16-.46.4-.81.24a1.07,1.07,0,0,0-.75,0A.9.9,0,0,1,82.62,44.9Z"/><path class="cls-1" d="M76.92,7.1h.82c.25,0,.47,0,.37-.37,0-.07,0-.12,0-.12s.33-.06.47,0,.09.33.09.5-.14.21-.3.23A3.32,3.32,0,0,1,76.92,7.1Z"/><path class="cls-1" d="M170.07,45.57a4.81,4.81,0,0,1-2.06.21c-.16,0-.45.18-.47-.2s.3-.23.48-.29h0c-.07.14,0,.29.1.28a2.85,2.85,0,0,0,1.23-.07c.24-.12.53-.29.72.1Z"/><path class="cls-2" d="M57.67,26.46a.47.47,0,0,1-.29.72c-.63,0-.73.59-1,.93-.15.17-.25.37-.53.25A8.38,8.38,0,0,1,57.67,26.46Z"/><path class="cls-1" d="M63.53,45.41c.21-.08.44.05.65-.11s.21,0,.3.09,0,.21-.06.3c-.33.75-1,.86-1.72.86a1.51,1.51,0,0,1,.76-.35c.18-.07.46,0,.49-.33s-.24-.35-.41-.48Z"/><path class="cls-1" d="M176.08,45.78H173c.13-.21.42-.18.5-.43s.28-.11.32,0c.14.35.43.25.66.23a4.51,4.51,0,0,0,1.16,0A.41.41,0,0,1,176.08,45.78Z"/><path class="cls-2" d="M85.54,40.91l.14,0c0,.84.71.65,1.2.76l.14,0s0,0,0,0c-.17.07-.51-.06-.41.33,0,0-.22.09-.38,0s-.56-.25-.88-.39c.29-.23.21-.48.06-.74Z"/><path class="cls-2" d="M94.29,40.39a1.88,1.88,0,0,0,.53-.83.62.62,0,0,1,.32-.39c.13-.05.25-.17.4-.07s.07.25.09.37a.27.27,0,0,1-.27.28.46.46,0,0,0-.53.44A.38.38,0,0,1,94.29,40.39Z"/><path class="cls-1" d="M55,27.42c.32-.23.21-.83.89-.83a1.28,1.28,0,0,0-.74-.18l-.07-.08c0-.41.29-.45.61-.36h0c0,.09-.12.08-.2.09s-.17.08-.16.15.11.14.22.14a1.93,1.93,0,0,1,.34,0c.27,0,.32.13.18.37a1.47,1.47,0,0,1-1.07.7Z"/><path class="cls-2" d="M63.15,48c0,.37-.37.27-.56.37s-.65-.13-.66.39c0,0-.31.08-.44-.05s-.31-.19-.18-.43.24-.29.4-.21A1.58,1.58,0,0,0,63.16,48Z"/><path class="cls-1" d="M60.72,20.11a2.53,2.53,0,0,1-1.85.32c.63,0,.87-.69,1.46-.71l.08.07c-.15.37.12.31.32.33Z"/><path class="cls-2" d="M26.46,34.05c-.15-.28-.15-.47.09-.64a3.52,3.52,0,0,0,.68-.59c.2-.27.29,0,.37,0s0,.21-.1.28A9.41,9.41,0,0,0,26.46,34.05Z"/><path class="cls-2" d="M16.14,40.3a2,2,0,0,1-1.79.4c.47-.59,1.12-.44,1.72-.47A.46.46,0,0,0,16.14,40.3Z"/><path class="cls-1" d="M168.51,25.09a.93.93,0,0,0,.54-.14c.27-.19.09-.25-.09-.37l1.58.2.07.08c-.2.17-.4.3-.68.15a.33.33,0,0,0-.27,0c-.35.32-.77.15-1.15.16Z"/><path class="cls-2" d="M105.7,45.77a1.13,1.13,0,0,1,.89-.11.68.68,0,0,0,.79-.17c.17-.2.41-.35.64,0,.12.2.42.41.5-.09a.15.15,0,0,1,.13,0,.47.47,0,0,1,.12.19s0,.14-.06.15a1.37,1.37,0,0,1-.29,0Z"/><path class="cls-1" d="M123.58,45.29c-.19-.09-.39.08-.61-.07.18-.18.44-.33.3-.67.35.58.85.17,1.26.24l.08.08c0,.44-.32.47-.66.41h0c0-.22-.17-.26-.3-.27s-.16.15-.1.27Z"/><path class="cls-1" d="M178,45.16l-.83.05c0,.31.55.32.34.59s-.54.06-.88.06a1.16,1.16,0,0,0,0-1C177,45.28,177.51,45,178,45.16Z"/><path class="cls-2" d="M17.86,36.77c.29-.2.5-.37.73-.51s.31-.23.45.06.42,0,.62.16A4.42,4.42,0,0,1,17.86,36.77Z"/><path class="cls-2" d="M28.6,31.41a1.2,1.2,0,0,1-.54,1.28c-.08,0-.16,0-.15,0,.17-.25-.19-.58.08-.76A6.54,6.54,0,0,1,28.6,31.41Z"/><path class="cls-1" d="M54.24,28.44h-.79a8.08,8.08,0,0,1,.8-.16.4.4,0,0,1,.33.25c.07.12-.09.18-.16.27s-.18.26-.28.37a.54.54,0,0,1-.79.08A2,2,0,0,0,54.24,28.44Z"/><path class="cls-1" d="M61.88,49.68c-.09-.24-.07-.44.13-.49s.18.16.17.28.21.16.36.24c-.74.71-1.1-.13-1.68-.31C61.13,49.34,61.13,49.34,61.88,49.68Z"/><path class="cls-2" d="M160.29,30a2.71,2.71,0,0,1,1-1.5c.06-.05.18-.2.32-.06s0,.27-.07.33a3,3,0,0,1-.5.36A5.85,5.85,0,0,0,160.29,30Z"/><path class="cls-1" d="M168.48,44.86c.1.43-.13.49-.47.42h0c0-.31-.18-.38-.44-.19a1.06,1.06,0,0,1-.33.18c-.16,0-.34,0-.39-.17s.18-.12.28-.17a3.38,3.38,0,0,1,1.26-.15Z"/><path class="cls-2" d="M106.93,25.65a3.23,3.23,0,0,1-.87-.14c-.17,0-.22-.1-.19-.32s.17-.22.31-.21c.43,0,.76.16.74.68Z"/><path class="cls-1" d="M63.25,47.81c.13-.6-.5-.47-.75-.77A14.08,14.08,0,0,0,64,47c-.28.28-.34.68-.64.92Z"/><path class="cls-2" d="M99,54.34c0,.13-.25.06-.25.25.27.08.62-.09.83.22v0c-.36-.06-.65.24-1,.21-.12,0-.31.12-.34-.12s0-.35.18-.47.36,0,.49-.15Z"/><path class="cls-2" d="M135.48,25.31c.34-.3.68-.36.79-.77,0-.17.54-.25.85-.31.08,0,.11.28,0,.31A10.09,10.09,0,0,1,135.48,25.31Z"/><path class="cls-1" d="M75.12,14.2c.12,0,.28,0,.34-.12s0-.25.18-.17a.28.28,0,0,1,.17.31c0,.43-.33.57-.7.63h0c0-.23-.13-.27-.33-.29s-.29.12-.33-.11h0c.22-.1.66.3.68-.29Z"/><path class="cls-1" d="M79.4,3.69c0-.18.06-.38-.15-.47a.41.41,0,0,0-.47.17.59.59,0,0,1-.27.17c-.09,0-.18.18-.26,0s-.2-.2,0-.33a1,1,0,0,0,.27-.74c-.11.66.3.58.67.57.16,0,.36,0,.42.15s.1.38-.11.51Z"/><path class="cls-1" d="M136.66,40.91c.24,0,.49,0,.74,0s.56.19.54.47a.46.46,0,0,1-.6.39s0-.06,0-.09.44-.09.39-.32-.33-.07-.48,0C137,41.35,136.87,41,136.66,40.91Z"/><path class="cls-2" d="M150.45,30.39a.2.2,0,0,1-.31-.14c0-.19.16-.09.23-.15s.38-.08.49-.27.1-.35.26-.24.11.33,0,.49S150.72,30.38,150.45,30.39Z"/><path class="cls-1" d="M130.69,45.1c-.17.22-.55.25-.37.62.05.09-.11.06-.17.06H129c.12-.2.36-.17.42-.39a.15.15,0,0,1,.29,0c.17.33.24.16.35,0A.64.64,0,0,1,130.69,45.1Z"/><path class="cls-2" d="M62.16,52.83c-.17.18,0,.44-.15.63s-.41.36-1,.22a3,3,0,0,0,1.07-.92Z"/><path class="cls-2" d="M159.63,31.83a2.77,2.77,0,0,1-.49,1.67c-.21-.37-.22-.38,0-.7s.37-.64.55-.95Z"/><path class="cls-2" d="M11.24,42.32l1.45-.74c-.08.15.18.34,0,.37C12.25,42,11.9,42.54,11.24,42.32Z"/><path class="cls-2" d="M57.31,54.78c-.5.14-.61-.48-1-.51-.07,0,0-.15.07-.18s.43-.15.56,0S57.3,54.46,57.31,54.78Z"/><path class="cls-2" d="M24.8,34.63c-.06.69-.69.82-1,1.22-.07.11-.19-.12-.37-.11Z"/><path class="cls-2" d="M53.81,48.08a1.58,1.58,0,0,1,.39-1c.09-.11.25-.19-.07-.19s0-.17,0-.25.16,0,.22,0c.24.21.14.79-.22,1A1.09,1.09,0,0,0,53.81,48.08Z"/><path class="cls-1" d="M60.39,52c.47-.17,1-.23.81-.86a.53.53,0,0,1,.47.59c0,.26-.3.13-.45.2A1.83,1.83,0,0,1,60.39,52Z"/><path class="cls-1" d="M131.11,45.54c.34.29.72-.2,1,.22H130.9c.45-.32.55-1,1.07-1.22C131.56,44.77,131.78,45.5,131.11,45.54Z"/><path class="cls-2" d="M58.88,45.69v0c-.5.1-1,0-1.51.21a.18.18,0,0,0,0-.07c.07-.16.53-.17.18-.49-.1-.09,0-.08,0-.1s.13-.09.27,0C58.16,45.43,58.44,45.78,58.88,45.69Z"/><path class="cls-1" d="M45.85,25.75a1,1,0,0,0-.8.32c-.1-.18.22-.24.08-.36s-.24,0-.36-.05-.29.07-.28-.15.18-.15.28-.14.45-.14.69-.1h0c-.12.23-.2.44.21.4.07,0,.17,0,.18.1Z"/><path class="cls-1" d="M143.91,25.66c.38,0,.74.07,1-.26a.24.24,0,0,1,.37.07c.07.16-.11.16-.2.22C144.56,26,144.26,26,143.91,25.66Z"/><path class="cls-2" d="M6.56,11.29c-.1-.18-.27,0-.38-.17.26-.09.65,0,.54-.65a.6.6,0,0,0,.67.35c-.65.18-1,1-1.7.88A2,2,0,0,1,6.56,11.29Z"/><path class="cls-2" d="M79.28,2.53c.18-.09.43.12.49-.07.11-.38-.25-.58-.48-.92.27.14.62,0,.67.26s.17.64-.09.87S79.47,2.69,79.28,2.53Z"/><path class="cls-2" d="M31.37,28.39c.29.35.16.59-.08.89s-.38,0-.45,0,0-.17.09-.25S31.22,28.61,31.37,28.39Z"/><path class="cls-1" d="M75.83,16.58c.18-.32-.54-.61,0-.92.09-.05.34-.1.38.07A.84.84,0,0,1,75.83,16.58Z"/><path class="cls-2" d="M16.42,37.84a1.14,1.14,0,0,0-.75.6c-.06.12-.14.17-.31.08s0-.18,0-.25C15.53,37.66,16,37.82,16.42,37.84Z"/><path class="cls-2" d="M62.08,52.76c0-.42.44-.51.55-.86.22.65.08.92-.47.93Z"/><path class="cls-1" d="M174.4,45.05c.27-.06.5-.26.79-.24s.31-.08.4.06,0,.2-.1.29-.32.2-.42.09S174.62,45.13,174.4,45.05Z"/><path class="cls-1" d="M62.58,49.61c.12-.43-.27-.52-.52-.82.36,0,.72-.13.89.21S62.91,49.49,62.58,49.61Z"/><path class="cls-2" d="M8.1,2.58c0,.17-.15.17-.18.13a2.92,2.92,0,0,0-.74-.29.17.17,0,0,1-.12-.18c0-.12.1-.1.18-.1l.62,0C7.7,2.43,8.07,2.44,8.1,2.58Z"/><path class="cls-2" d="M16.54,37.8c.28-.2.79,0,.67-.55,0-.07.11-.19.24-.2s.17.19.24.29.09.22-.09.29A2.37,2.37,0,0,1,16.54,37.8Z"/><path class="cls-2" d="M112.29,24.21a1.58,1.58,0,0,1-.78.54c-.12.05-.26.2-.36,0s.15-.2.23-.26a1.13,1.13,0,0,1,.92-.27Z"/><path class="cls-2" d="M10.33,43.14a1.58,1.58,0,0,1-1,.5c-.24,0-.14-.25-.35-.35a6.77,6.77,0,0,0,1.36-.14Z"/><path class="cls-1" d="M55,27.41c-.27.63-.85.68-1.47.76A4.6,4.6,0,0,1,55,27.42Z"/><path class="cls-2" d="M20.71,8.91c-.13.12-.32-.06-.47.14s-.32,0-.47-.1,0-.2,0-.27a.29.29,0,0,1,.41-.1A3.24,3.24,0,0,1,20.71,8.91Z"/><path class="cls-2" d="M125.28,35.31c-.17.12-.54.07-.2.43.14.14-.15.49-.25.73,0,.08-.13,0-.15,0-.2-.37.17-.64.18-1C124.86,35.25,125.09,35.26,125.28,35.31Z"/><path class="cls-1" d="M54.08,31.43c-.27.42-.5.44-.76.11,0-.05-.07-.17-.17-.1a.16.16,0,0,0-.07.11c0,.08.22.17,0,.22s-.11-.16-.19-.23,0-.27.22-.24Z"/><path class="cls-2" d="M85.36,24.27a.82.82,0,0,1-1.09.38A1.07,1.07,0,0,1,85.36,24.27Z"/><path class="cls-1" d="M86.67,44.67c.26.18.48.21.54.52s.49.27.83-.16c0,.2.07.39-.2.45C87.31,45.61,87.07,45.45,86.67,44.67Z"/><path class="cls-2" d="M60.16,22.48l.65-.56s0-.06.07-.22c0,.31.38.37.07.66S60.68,22.67,60.16,22.48Z"/><path class="cls-2" d="M65,46.35c.07.17,0,.33-.07.49s-.07.24-.21.19a2.23,2.23,0,0,1-.48-.26s0-.1.09-.13c.23-.07.42-.27.68-.28Z"/><path class="cls-2" d="M8.19,39.05c0,.47-.32.79-.43,1.23a1,1,0,0,1,.43-1.22Z"/><path class="cls-2" d="M54.9,53.37c.27.07.61-.21.76.19.08.21-.24.18-.23.36C55.14,53.86,55,53.61,54.9,53.37Z"/><path class="cls-1" d="M62.6,50.34c.16,0,.36,0,.34.17s-.27.36-.5.41-.28-.09-.24-.22S62.32,50.28,62.6,50.34Z"/><path class="cls-2" d="M134,27.07c-.13.23-.27.45-.39.69a.74.74,0,0,1-.44.32c-.07,0-.17,0-.18-.09a.32.32,0,0,1,0-.17c.51-.05.52-.66.93-.81Z"/><path class="cls-1" d="M98.33,58.76c-.25.34-.59.27-.86.31s-.29.35-.43.15.33-.19.29-.46c0-.09.22-.09.29,0S98,58.78,98.33,58.76Z"/><path class="cls-1" d="M9.45,30.79c-.09,0-.29.1-.27-.12s.36-.32.57-.42.23.09.19.2S9.79,30.92,9.45,30.79Z"/><path class="cls-2" d="M34.72,19.67c-.18,0-.17-.25-.35-.28s-.28-.12-.17-.3.27-.11.45-.06.27,0,.2.25S34.76,19.54,34.72,19.67Z"/><path class="cls-2" d="M34.41,40.52c0,.63-.16.81-.92.75C34,41.12,34,40.66,34.41,40.52Z"/><path class="cls-1" d="M29.3,28.47a.26.26,0,0,0,.29.3c.08,0,.19,0,.2.12s-.1.22-.18.31-.17,0-.24,0c-.22-.22-.53-.42-.06-.69Z"/><path class="cls-2" d="M177.06,27c.12-.13.35-.16.32-.43l.33.38c.08.09.33.14.17.31a.35.35,0,0,1-.44,0c-.12-.1-.2-.24-.39-.24Z"/><path class="cls-1" d="M62.15,45.42A1,1,0,0,0,63,46c-.29.25-.57.12-.83.14C62.32,45.91,61.8,45.67,62.15,45.42Z"/><path class="cls-1" d="M31.46,26s.08.08.07.09c-.19.29,0,.39.22.52s0,.2-.07.28-.14.1-.25,0a.43.43,0,0,1-.13-.59C31.35,26.26,31.27,26.09,31.46,26Z"/><path class="cls-1" d="M31.52,25.33a1.33,1.33,0,0,1-1,.75c.33-.26.53-.66,1-.82Z"/><path class="cls-1" d="M7,12.7c.43-.18.8-.36,1.2-.12C8.07,12.8,8.07,12.8,7,12.7Z"/><path class="cls-2" d="M122.86,39.22c-.3.23-.46.65-.93.39C122.15,39.34,122.36,39,122.86,39.22Z"/><path class="cls-2" d="M29.76,30.29c.07.67-.26,1-1,1A1.79,1.79,0,0,0,29.76,30.29Z"/><path class="cls-2" d="M31.73,22.26h.11a.89.89,0,0,0,.31.11.23.23,0,0,1,.17.3c0,.14-.15.18-.3.18s-.25,0-.25-.2A2.45,2.45,0,0,0,31.73,22.26Z"/><path class="cls-2" d="M92.47,41.12a1.92,1.92,0,0,0,1.41-.5A1,1,0,0,1,92.47,41.12Z"/><path class="cls-1" d="M115.68,38.1c.22-.29-.14-.25-.25-.41l1.29.24c-.33,0-.39.28-.61.54.26-.79-.24-.35-.44-.39Z"/><path class="cls-2" d="M60.91,53.74c-.06.21.32.27.14.46a.71.71,0,0,1-.84.18C60.58,54.28,60.61,53.93,60.91,53.74Z"/><path class="cls-2" d="M54.4,46.3a1,1,0,0,1,.32-.4c.09-.08.22-.19.32,0s.1.3-.11.38S54.6,46.43,54.4,46.3Z"/><path class="cls-1" d="M21.89,35.53a1.49,1.49,0,0,1-1.69.29c.29-.15.56.06.84,0a3,3,0,0,1,.77-.31Z"/><path class="cls-1" d="M14,.51a.79.79,0,0,1-1.13.34.11.11,0,0,1,0-.12s.07-.16.17-.09C13.41.87,13.69.67,14,.51Z"/><path class="cls-2" d="M110.73,41.22l-.94-.52C110.14,40.48,110.14,40.48,110.73,41.22Z"/><path class="cls-2" d="M124.09,37.43c-.17.71-.48,1-.91.92C123.49,38,123.9,37.85,124.09,37.43Z"/><path class="cls-2" d="M80.77,44.79a.59.59,0,0,1,.74-.23l.78.22c-.52-.14-1,.09-1.53,0Z"/><path class="cls-2" d="M6.76,34.44a1.63,1.63,0,0,1,.1-.67c0-.13.15-.22.25-.19A.24.24,0,0,1,7.2,34,3,3,0,0,1,6.76,34.44Z"/><path class="cls-2" d="M142.92,36.93a1.09,1.09,0,0,1-1.14.55,2.8,2.8,0,0,1,1.15-.54Z"/><path class="cls-2" d="M27.71,29.81a.39.39,0,0,1,.58-.08c.18.11.43.3.53-.09,0-.07.07-.07.1,0a.33.33,0,0,1,.09.16c0,.27-.27.36-.62.18A.77.77,0,0,0,27.71,29.81Z"/><path class="cls-2" d="M26.39,31.58c-.08-.1-.36,0-.26-.23a1.25,1.25,0,0,1,.52-.5c.16-.09.24.12.31.25h0c-.38-.05-.56.15-.6.5Z"/><path class="cls-1" d="M12.4,39.89A1.34,1.34,0,0,1,14,39.74a2.87,2.87,0,0,0-1.49.21Z"/><path class="cls-1" d="M120.67,28.34c-.22-.13-.21-.38-.34-.6l.65,0c.06.26-.27.34-.23.57Z"/><path class="cls-1" d="M142.92,29.74a.5.5,0,0,1,.45-.29,13,13,0,0,1,1.39,0,14.56,14.56,0,0,0-1.86.24Z"/><path class="cls-1" d="M44.79,8c-.45,0,0-.37-.26-.48s-.45.39-.85.12a.88.88,0,0,0,.61-.2c.15-.1.34-.19.51,0s0,.24-.1.34.06.17.08.26Z"/><path class="cls-1" d="M.41,47.91c0,.28,0,.51.49.51-.32.09-.48.38-.69.18S.29,48.15.41,47.91Z"/><path class="cls-2" d="M111,24.75c-.15.56-.66.56-.89.87A1.84,1.84,0,0,1,111,24.75Z"/><path class="cls-2" d="M149.23,37.59c0,.58-.21.71-.64.56C148.72,37.9,149,37.81,149.23,37.59Z"/><path class="cls-2" d="M83.37,25.56a1.24,1.24,0,0,1,.63-.81C84.08,25.24,83.67,25.3,83.37,25.56Z"/><path class="cls-2" d="M69.26,35.07a1,1,0,0,1,.38-1.22A2.2,2.2,0,0,0,69.26,35.07Z"/><path class="cls-2" d="M87.28,42.23c.18-.19.49-.1.52-.43l.37.48Z"/><path class="cls-1" d="M23.58,34.31c-.63.4-.87.41-1.35,0a1.44,1.44,0,0,0,1.28-.1Z"/><path class="cls-1" d="M124.53,44.79c.17-.35.5-.26.9-.27-.47.14-.45.33-.2.57l-.07.07c-.21-.06-.22-.47-.55-.29Z"/><path class="cls-2" d="M95.49,31.53c-.55-.18-.8.44-1.27.28C94.62,31.72,94.86,31.08,95.49,31.53Z"/><path class="cls-2" d="M101.27,52.18c-.07.22-.12.39-.17.57s0,.25-.17.19a.21.21,0,0,1-.12-.28C100.9,52.48,101,52.25,101.27,52.18Z"/><path class="cls-1" d="M147.41,39.58c0-.28.25-.32.33-.5a.18.18,0,0,1,.31,0c.1.11,0,.22-.1.32s-.41,0-.55.21Z"/><path class="cls-2" d="M47.81,40.76l.5-.53c.18.57.18.57-.41.6Z"/><path class="cls-1" d="M21.81,35.47a.68.68,0,0,1,0-.15c.18-.32.3-.6-.34-.57.29,0,.6-.17.67.08a.76.76,0,0,1-.27.7Z"/><path class="cls-1" d="M158.66,34.7a1.18,1.18,0,0,1-.11.8C158.24,35.08,158.24,35.08,158.66,34.7Z"/><path class="cls-1" d="M94,38.11c.24,0,.47-.17.68,0,0,.06.06.22-.08.22S94.08,38.5,94,38.11Z"/><path class="cls-2" d="M168.51,25.09v.06h-.94V25C167.88,24.75,168.2,25.07,168.51,25.09Z"/><path class="cls-1" d="M53,30.46c.35.14.05-.65.53-.35.1.07.16.13.12.21S53.23,30.53,53,30.46Z"/><path class="cls-2" d="M52.51,33.37c.08.42.12.82-.5,1C52.18,34,52.51,33.75,52.51,33.37Z"/><path class="cls-2" d="M104.45,32.78c-.34-.2-.2-.47-.31-.65.2-.11.41-.05.7-.05C104.53,32.23,104.29,32.36,104.45,32.78Z"/><path class="cls-2" d="M23,36.37c-.14.25-.26.51-.64.47C22.43,36.53,22.56,36.27,23,36.37Z"/><path class="cls-2" d="M55.4,29.32a.73.73,0,0,1,.07-.56c.05-.08.08-.23.22-.11s.2.14.07.26S55.62,29.24,55.4,29.32Z"/><path class="cls-2" d="M94,34c-.15,0-.25.16-.45.07.19-.25.07-.69.54-.74h0c-.08.22-.53.4-.1.69Z"/><path class="cls-2" d="M67.8,38.87a.55.55,0,0,1-.14.41c-.06.09,0,.26-.13.26s-.11,0-.15-.1a.22.22,0,0,1,.07-.33C67.55,39,67.6,38.89,67.8,38.87Z"/><path class="cls-2" d="M76.81,14.17a.81.81,0,0,1,.35-.95A2,2,0,0,1,76.81,14.17Z"/><path class="cls-1" d="M32,37.84a5.28,5.28,0,0,0-1.44.24C31,37.51,31.51,37.91,32,37.84Z"/><path class="cls-1" d="M156.43,44.6c.17.27.52.17.46.46a.31.31,0,0,1-.32.23c-.1,0-.15-.07-.12-.15A1,1,0,0,0,156.43,44.6Z"/><path class="cls-2" d="M56.18,45.29c0-.23-.31-.44.07-.55.08,0,.22-.2.27,0S56.42,45.1,56.18,45.29Z"/><path class="cls-1" d="M102.94,43.73a2.09,2.09,0,0,0,.65-.91c0,.5-.11.85-.57,1Z"/><path class="cls-2" d="M20.48,37.37c.12-.1.28,0,.41-.12s.27-.1.34,0-.13.18-.2.27-.15,0-.21-.08S20.6,37.4,20.48,37.37Z"/><path class="cls-1" d="M111.1,23.43c-.1,0-.21-.06-.17-.1a2.75,2.75,0,0,1,.53-.36c.06,0,.16.11.14.21C111.52,23.46,111.2,23.25,111.1,23.43Z"/><path class="cls-2" d="M121,40.41c0-.21.27-.17.36-.31s.08-.25.2,0,.08.23,0,.31A.74.74,0,0,1,121,40.41Z"/><path class="cls-2" d="M32.35,27.54c-.14.3-.13.79-.67.62Z"/><path class="cls-1" d="M170.06,45.59a2.14,2.14,0,0,1,1.11.18h-.92c-.15,0-.2-.07-.18-.21Z"/><path class="cls-1" d="M75.11,14.85a.9.9,0,0,0,.13.4c.11.16.25.4-.11.5l-.08-.07c.09-.14.15-.3,0-.41s-.09-.3.07-.41Z"/><path class="cls-1" d="M61.31,16.2l.89-.39C62,16.07,61.72,16.34,61.31,16.2Z"/><path class="cls-2" d="M58.48,26c-.36-.21-.17-.42,0-.64C58.57,25.59,58.78,25.78,58.48,26Z"/><path class="cls-2" d="M147.4,39.56c-.09.34-.2.64-.68.43a1,1,0,0,1,.69-.41Z"/><path class="cls-2" d="M75.36,18.14a1.55,1.55,0,0,1-.29.84A.67.67,0,0,1,75.36,18.14Z"/><path class="cls-2" d="M56.15,45.27c-.21.14-.45.17-.65.3a.17.17,0,0,1-.26-.13c0-.1.09-.14.19-.14Z"/><path class="cls-1" d="M78.4,4.44c-.38-.07-.5.33-.79.43C77.69,4.41,77.82,4.34,78.4,4.44Z"/><path class="cls-2" d="M51,38.49c-.27-.05-.48.16-.72.06l.5-.43Z"/><path class="cls-2" d="M149.1,45.73h-.91v-.09h.91Z"/><path class="cls-2" d="M73.69,16.07c.08-.32-.44-.34-.33-.66.46.22.54.35.41.73Z"/><path class="cls-2" d="M60.09,22.78c.07.22.09.42-.14.54s-.11,0-.14-.09C59.66,22.94,60,22.94,60.09,22.78Z"/><path class="cls-2" d="M65.39,13.6s-.09-.11-.08-.16a.57.57,0,0,1,.22-.39s.11,0,.12,0-.06.26-.08.39a.47.47,0,0,1-.12.2Z"/><path class="cls-2" d="M13.41,13.71h0c0-.32-.11-.43-.44-.41s-.46.12-.65-.09v0c.24,0,.48,0,.71,0C13.4,13.17,13.55,13.31,13.41,13.71Z"/><path class="cls-2" d="M58.9,54.48c-.39-.16-.85.08-1.23-.24a11.16,11.16,0,0,1,1.31.17Z"/><path class="cls-1" d="M74.35,15.25c.22,0,.19.22.32.29s.17.31.38.14l.08.07c-.5.28-.63-.18-.86-.43Z"/><path class="cls-1" d="M79,45.76h-.63C78.68,45.38,78.79,45.38,79,45.76Z"/><path class="cls-2" d="M119.87,41.2c.11-.24.37-.3.55-.45,0,0,.13.12.12.14-.14.23-.41.25-.62.38Z"/><path class="cls-2" d="M75.13,11c.24-.08-.33-.36,0-.46s.21.18.25.29C75.49,11.1,75.12,10.9,75.13,11Z"/><path class="cls-2" d="M12.5,18.29c.17.31.24.55,0,.82C12.54,18.84,12.24,18.6,12.5,18.29Z"/><path class="cls-2" d="M157.39,39.72c-.24-.39-.21-.51.19-.68.07.16-.13.2-.16.31S157.49,39.61,157.39,39.72Z"/><path class="cls-2" d="M64.31,48.27c.08.3-.1.52-.22.84a.68.68,0,0,1,.23-.83Z"/><path class="cls-2" d="M79.34,7c.07.4-.11.62-.18.93A1.08,1.08,0,0,1,79.34,7Z"/><path class="cls-1" d="M164,45.76c.24-.36.44-.37.66,0Z"/><path class="cls-1" d="M43,11.87c-.24-.26-.58,0-.92-.18.37,0,.67-.25,1,0,.15.12.09.17-.07.17Z"/><path class="cls-2" d="M64.72,15.51l-.32.6C64.25,15.72,64.39,15.56,64.72,15.51Z"/><path class="cls-2" d="M9.51,35c-.35-.36.06-.45.19-.63C9.63,34.55,9.68,34.78,9.51,35Z"/><path class="cls-2" d="M10.89,27.55a1.47,1.47,0,0,1-.19.58C10.49,27.81,10.52,27.73,10.89,27.55Z"/><path class="cls-2" d="M96.94,37.71a.88.88,0,0,1-.19.69c-.09.08-.16.11-.24,0s.07-.11.1-.16Z"/><path class="cls-2" d="M6.78,13.19c-.18,0-.21.31-.43.14s-.2-.29.08-.36C6.44,13.19,6.66,13.07,6.78,13.19Z"/><path class="cls-1" d="M70.37,30c-.27.08-.5.24-.71-.08A.61.61,0,0,1,70.37,30Z"/><path class="cls-1" d="M27,31.1a1.92,1.92,0,0,1,.48,0c.14,0,.36.08.36.23a.28.28,0,0,1-.35.24h0c.19-.24.14-.37-.17-.4-.11,0-.26.09-.31-.1Z"/><path class="cls-1" d="M136.71,22.75c-.26.29-.63.24-.94.38.24-.26.58-.28.86-.45Z"/><path class="cls-2" d="M14.09,7.63A2.61,2.61,0,0,0,14,7.9c0,.09,0,.18-.13.15a.41.41,0,0,1-.24-.13c-.05-.07,0-.15.09-.19s.19-.1.28-.15Z"/><path class="cls-2" d="M73.57,14.62c.17-.5.29-.56.67-.35A2.15,2.15,0,0,0,73.57,14.62Z"/><path class="cls-2" d="M73.77,16.14c-.16.2-.42,0-.61.18s-.18,0-.16-.15.07-.14.19-.08a.5.5,0,0,0,.5,0Z"/><path class="cls-2" d="M119,36.44h-.52c.13-.22.33-.24.51-.3l.07.08-.07.23Z"/><path class="cls-1" d="M112.22,40.76c.11.18,0,.48.35.49C112.05,41.28,112,41.2,112.22,40.76Z"/><path class="cls-2" d="M164.42,25.85c.14-.27.42-.27.65-.35a.78.78,0,0,1-.66.34Z"/><path class="cls-1" d="M58.83,44.44c0,.29,0,.46.37.54a.54.54,0,0,1-.59-.14C58.54,44.77,58.67,44.6,58.83,44.44Z"/><path class="cls-1" d="M106.44,27.69a1.12,1.12,0,0,1,.6-.26.5.5,0,0,1-.61.25Z"/><path class="cls-1" d="M9.68.33l0,0c.1-.08,0-.31.21-.29.06,0,.15,0,.12.1S10,.41,9.76.4Z"/><path class="cls-1" d="M100.44,50.76c-.27,0-.31-.32-.56-.26C100.12,50.43,100.35,50.36,100.44,50.76Z"/><path class="cls-2" d="M139.9,28c-.28-.11-.57,0-.86,0a2.44,2.44,0,0,1,.85.06Z"/><path class="cls-1" d="M.19,45.11c-.14-.43.32-.07.35-.27l.08.07a1.15,1.15,0,0,0-.4.39Z"/><path class="cls-1" d="M68.84,30.1c-.29-.08-.26-.3-.19-.64,0,.29.27.35.26.56Z"/><path class="cls-1" d="M119.28,45.46a1,1,0,0,1-.81,0Z"/><path class="cls-2" d="M5.8,4.59c.2,0,.2,0,.57.28-.27,0-.46,0-.56-.28Z"/><path class="cls-1" d="M147.26,36.61c-.23,0-.33,0-.34-.2s0-.16.08-.14S147.16,36.47,147.26,36.61Z"/><path class="cls-1" d="M24,34c0,.26-.22.24-.38.29l-.07-.08a.82.82,0,0,1,.38-.28Z"/><path class="cls-2" d="M135.87,22.73l.12-.68C136.13,22.33,136.13,22.33,135.87,22.73Z"/><path class="cls-1" d="M55.15,26.41c-.14.14,0,.48-.35.51l.28-.59Z"/><path class="cls-1" d="M148.3,36.64c.11-.22.31-.22.37-.4C148.68,36.48,148.63,36.65,148.3,36.64Z"/><path class="cls-1" d="M145.49,22.2c.28.08.29.28.21.52,0-.2-.17-.31-.25-.46Z"/><path class="cls-1" d="M80.66,24.87l.6-.37c-.08.33-.36.31-.52.44Z"/><path class="cls-1" d="M107.2,24.82c.16.12.57.17.12.45h0c0-.19-.08-.3-.21-.39Z"/><path class="cls-2" d="M97.31,37.52c0,.16-.08.31-.33.27,0-.18.16-.25.26-.35Z"/><path class="cls-1" d="M144.55,24.72c.17.13.38,0,.65.12-.31,0-.52.13-.73-.05Z"/><path class="cls-2" d="M164.26,26c-.16,0-.28.21-.48.12.08-.26.29-.14.44-.17A.1.1,0,0,1,164.26,26Z"/><path class="cls-2" d="M133,44.81c-.18,0-.17-.13-.23-.23l.09-.06c.17,0,.14.15.21.21Z"/><path class="cls-2" d="M.19,45.11l0,.19,0,.26C.1,45.49,0,45.45.06,45.3A2.14,2.14,0,0,0,.19,45.11Z"/><path class="cls-2" d="M51.68,34.79a.69.69,0,0,1,.4-.56l-.35.62Z"/><path class="cls-2" d="M97.24,37.44c.08-.12.09-.28.25-.32l.08.05c-.09.11-.09.29-.26.35Z"/><path class="cls-1" d="M107.33,21.2a.66.66,0,0,1-.4.19c0-.2.22-.18.32-.26Z"/><path class="cls-1" d="M172.9,26.34c-.33,0-.22-.16-.1-.37.12.14.07.27.08.38Z"/><path class="cls-1" d="M18.72,7.84l-.2,0c-.08,0-.1,0-.1-.12s0-.13.1-.09A1,1,0,0,1,18.72,7.84Z"/><path class="cls-1" d="M9.76.4a.27.27,0,0,1-.37.16L9.68.33Z"/><path class="cls-1" d="M68.91,30a.59.59,0,0,1,.18.35c-.22,0-.16-.19-.25-.27Z"/><path class="cls-1" d="M53.07,29c.1-.05.2-.08.27,0a.1.1,0,0,1,0,.11C53.2,29.18,53.12,29.11,53.07,29Z"/><path class="cls-1" d="M81.75,24.21a.41.41,0,0,1-.39.22c0-.17.23-.18.31-.29Z"/><path class="cls-1" d="M31.87,25a.32.32,0,0,1,.37-.22A.32.32,0,0,1,31.87,25Z"/><path class="cls-1" d="M4,42.48c-.13.19-.31,0-.46.06.1-.15.29,0,.39-.13Z"/><path class="cls-2" d="M79.3,2.41a.29.29,0,0,1-.39-.19C79.1,2.17,79.16,2.41,79.3,2.41Z"/><path class="cls-2" d="M109.65,44.79c.1-.09.13-.32.35-.16h0l-.25.23Z"/><path class="cls-2" d="M12.78,18.09c0,.08,0,.19-.13.2s-.06,0-.06,0,0-.19.12-.26Z"/><path class="cls-1" d="M93.81,26c-.1.16-.24.08-.41.05l.33-.12Z"/><path class="cls-2" d="M78.15,1.71c.17-.05.28-.1.39,0C78.42,1.83,78.32,1.73,78.15,1.71Z"/><path class="cls-1" d="M68.74,28c.06.08.16.12.14.24s0,0-.08,0S68.69,28.07,68.74,28Z"/><path class="cls-2" d="M4.69,46.64c0-.1.11-.17.3-.11l-.25.19A.35.35,0,0,0,4.69,46.64Z"/><path class="cls-2" d="M47.9,40.83c-.07.15-.2.07-.31.08h0c0-.15.17-.07.21-.16Z"/><path class="cls-2" d="M85.46,41l-.19-.11c.1-.06.2-.08.27,0Z"/><path class="cls-1" d="M26.12,10.77a.35.35,0,0,1-.36-.08c.17,0,.27,0,.35.09Z"/><path class="cls-1" d="M144.79,36.67a1,1,0,0,1-.16.1l0-.05.12-.14Z"/><path class="cls-1" d="M168.4,44.79c.07-.12.17-.11.27,0l-.19.11Z"/><path class="cls-1" d="M91.86,37.33c-.07.13-.16.11-.27,0l.19-.11Z"/><path class="cls-1" d="M143.8,21.68c.07-.23.21-.11.34-.07l0,.07h-.29Z"/><path class="cls-1" d="M79.46,3.77c-.06.07-.13.18-.21.09s.08-.13.15-.17Z"/><path class="cls-1" d="M74.27,15.32l-.19-.12c.11-.06.2-.08.27.05Z"/><path class="cls-2" d="M51.66,34.94c-.06.06-.12.21-.21.12s.06-.13.13-.18Z"/><path class="cls-2" d="M65.45,13.65c0,.07-.1.22-.19.12s.06-.13.13-.17Z"/><path class="cls-2" d="M140,28v0s0,.14-.06.05,0-.06,0-.1h0Z"/><path class="cls-2" d="M4.93,12.46l.13-.09c0,.09,0,.15-.06.18Z"/><path class="cls-2" d="M119.92,41.27l-.19.09-.06-.06c0-.12.12-.09.2-.1Z"/><path class="cls-1" d="M103.39,37.75l.08-.12s0,0,0,.07a.6.6,0,0,1-.06.11Z"/><path class="cls-2" d="M119,36.14c0-.11.12-.08.2-.08h0c0,.12-.09.11-.12.17Z"/><path class="cls-1" d="M63.31,47.89l-.16.12h0c0-.08,0-.18.09-.21Z"/><path class="cls-2" d="M74.46,14.46c-.08,0-.16,0-.2-.05s0,0,0,0,.14,0,.18.1Z"/><path class="cls-2" d="M16.32,40.2l-.18.1a.46.46,0,0,1-.07-.07c0-.12.12-.09.2-.1A.18.18,0,0,1,16.32,40.2Z"/><path class="cls-1" d="M29.46,28.36c-.05,0-.07.12-.16.11h0c0-.08,0-.17.09-.21Z"/><path class="cls-1" d="M56.93,24.49l.12-.15.09.06c0,.12-.13.09-.22.08Z"/><path class="cls-1" d="M53.15,29.91s-.07.06-.08.05L53,29.89s.05-.05.07,0Z"/><path class="cls-1" d="M45,30.9c0-.12.13-.09.21-.09h0c0,.1-.08.12-.12.17Z"/><path class="cls-1" d="M12.49,40c-.05.12-.14.09-.23.07h0l.13-.14Z"/><path class="cls-1" d="M31.66,25.18c0-.09.05-.12.13-.14s.05,0,0,.06-.11.07-.19.07Z"/><path class="cls-1" d="M145,29.73c-.07,0-.15,0-.2-.05s0-.07,0-.07a.19.19,0,0,1,.17.13Z"/><path class="cls-2" d="M47.44,41c.05,0,.07-.12.16-.11h0c0,.08,0,.17-.08.21Z"/><path class="cls-1" d="M73.67,19.25c0,.12-.13.09-.22.07h0l.13-.14Z"/><path class="cls-1" d="M31.64,25.17l-.12.16-.08-.07c0-.12.13-.09.22-.08Z"/><path class="cls-2" d="M10.34,43.15l.07-.09.05.06s-.07.11-.13,0Z"/><path class="cls-1" d="M49.83,30.81c.08,0,.17,0,.2.09L50,31c-.05,0-.13-.07-.12-.17Z"/><path class="cls-1" d="M33,41.59a.11.11,0,0,1,.17-.07l-.09.13Z"/><path class="cls-2" d="M12.71,18l.15-.09c.06.1,0,.14-.08.18Z"/><path class="cls-1" d="M162.94,27l-.1.06s0,0-.06,0l.08-.07S162.91,27,162.94,27Z"/><path class="cls-1" d="M45.85,34.69c-.08,0-.17,0-.21-.08l.08-.08s.13.08.12.17Z"/><path class="cls-2" d="M164.41,25.84c0,.14-.1.1-.15.16a.1.1,0,0,0,0-.05c0-.14.13-.08.2-.1Z"/><path class="cls-1" d="M53.37,31.87a.31.31,0,0,1,.05.12s0,0-.06.06a.61.61,0,0,1,0-.12S53.34,31.9,53.37,31.87Z"/><path class="cls-2" d="M62.67,18.75s0-.09.07-.06,0,.08,0,.12Z"/><path class="cls-2" d="M54.77,48.44l.08,0-.05,0,0-.07Z"/><path class="cls-2" d="M64.32,48.28l.07,0,0,.06-.06,0Z"/><path class="cls-2" d="M97.6,37l0-.06,0,.06H97.6Z"/><path class="cls-2" d="M97.58,37c.09.06,0,.1,0,.15l-.08-.05A.1.1,0,0,1,97.6,37Z"/><path class="cls-2" d="M134,27s0-.09.08-.05,0,.07,0,.11Z"/><path class="cls-2" d="M4.74,46.72l-.07.07-.08,0,.1-.1A.35.35,0,0,1,4.74,46.72Z"/><path class="cls-2" d="M65,46.36l0-.06v.06H65Z"/><path class="cls-2" d="M57.37,45.94s-.1,0-.11,0,0-.06.06-.07A.18.18,0,0,1,57.37,45.94Z"/><path class="cls-2" d="M5.81,4.59l0-.08,0,0-.07,0Z"/><path class="cls-2" d="M14,7.58s0-.09.08-.06,0,.07,0,.11Z"/><path class="cls-1" d="M93,26.87s-.1-.07,0-.12,0,.05.08.07A.18.18,0,0,1,93,26.87Z"/><path class="cls-1" d="M120.07,34.8l-.08.07c-.08,0,0-.09,0-.13Z"/><path class="cls-1" d="M96.49,44.63v-.09l.05.05-.06,0Z"/><path class="cls-2" d="M51.58,34.88l.1-.09,0,.06-.07.09Z"/><path class="cls-1" d="M138.55,42s.09,0,.06.09-.08,0-.12,0Z"/><path class="cls-2" d="M110,44.63s-.08,0-.06-.08h0v.09Z"/><path class="cls-2" d="M159.64,31.85l.08,0,0,.06-.05-.06Z"/><path class="cls-2" d="M8.19,39.06,8.25,39v.06l-.06,0Z"/><path class="cls-2" d="M119.73,41.36l-.16,0h0l.09-.09Z"/><path class="cls-1" d="M19.86,5.54c-.15,0-.35,0-.34-.15s.22-.14.37-.14.34,0,.33.16S20,5.55,19.86,5.54Z"/><path class="cls-2" d="M86.6,38.58l.45.16c.1.07.26,0,.35.17-.36,0-.67-.19-1-.14C86.39,38.62,86.62,38.74,86.6,38.58Z"/><path class="cls-1" d="M43.8,18.08c0-.22.28-.61-.3-.48.09-.3.28-.14.45-.11s.26.1.23.25A.37.37,0,0,1,43.8,18.08Z"/><path class="cls-1" d="M63,9.05c0-.08,0-.19.1-.21C63.16,9,63.05,9,63,9.05Z"/></g></g></svg>