<svg id="Layer_1" data-name="Layer 1" xmlns="http://www.w3.org/2000/svg" viewBox="0 0 950.8 1122.7"><defs><style>.cls-1{fill:#fff;}</style></defs><title>logo-android-white</title><g id="_3lkxYI.tif" data-name="3lkxYI.tif"><path class="cls-1" d="M165.71,377.13H784.64c.17,3.5.43,6.49.43,9.47q0,217.13.13,434.24c0,32.56-12.81,57.37-42.25,71.41-10.64,5.07-23.52,6.21-35.55,7.38-12.47,1.2-25.16.65-37.72.13-7.11-.3-8.75,2.34-8.72,9,.26,44.77,0,89.54.2,134.32.11,20.79-2.94,40.4-17.95,56.23-20.56,21.69-45.52,28.7-73.77,19.28-26.66-8.89-43.41-28-46.19-56.24-2.07-21-1.3-42.25-1.43-63.39-.18-32.48,0-65,0-98.26H429.5c-.17,3.32-.51,6.84-.51,10.36q-.06,68.55,0,137.08c0,30.65-12.5,53.77-40.29,67.83-41.13,20.83-95.64-9.61-97.27-55.59-1.76-49.63-1.49-99.34-1.51-149,0-9.13-2.11-11.85-11.66-11.89-20.14-.08-40.77.45-60.3-3.62-29.06-6.06-50.31-34.61-51.89-64.14q-.34-6.43-.34-12.87,0-215.74,0-431.49Z"/><path class="cls-1" d="M162.43,351.5c4.64-114.71,62-194.15,159.37-248.89-12-22.08-23.75-43.84-35.53-65.6-3.65-6.74-7.26-13.5-10.95-20.21C272,10.7,271,5,278.45,1.27c7.1-3.56,10.91,1.07,13.89,6.49Q313.82,46.85,335.16,86c1.45,2.64,3,5.2,5,8.64,43.18-19.38,88.37-28.4,135.12-28.38s92,8.84,135.47,28.52c12-22,23.66-43.12,35.27-64.3,3.83-7,7.59-14,11.46-21,3.37-6.1,6.89-12.69,15.46-7.82s4.51,11.39,1.25,17.41q-20.76,38.43-41.61,76.8c-1.14,2.11-2.14,4.29-3.66,7.33,65.27,34.52,112.94,84.93,140.73,153.33,11.85,29.15,19.2,71.84,16.38,94.94ZM333.35,239.18c13.72-.23,25.74-12.32,25.8-26,.06-13.87-12.72-26.44-26.59-26.15-13.7.29-25.25,12.51-25,26.48C307.79,227.74,319.54,239.41,333.35,239.18Zm309.9-25.59c.26-14-11.22-26.2-25-26.51s-26.66,12.23-26.63,26.1c0,13.62,12,25.74,25.75,26S643,227.78,643.25,213.59Z"/><path class="cls-1" d="M812.29,576.88c0-46.92-.2-93.84.07-140.76.2-36.51,20.4-62.79,53.64-70.78,39.38-9.46,79,18,83.7,58.1a126.54,126.54,0,0,1,1,14.67q.09,139.38.1,278.77c0,30.19-11.55,53.41-38.79,67.84-40.9,21.67-95.69-7.16-98.52-53.33-2.2-35.75-1-71.72-1.19-107.59C812.21,608.16,812.29,592.52,812.29,576.88Z"/><path class="cls-1" d="M138.51,578.34c0,46.61.14,93.21,0,139.82-.15,37.33-20,63.88-53.36,72-39,9.53-79.18-18.21-83.92-58A133.11,133.11,0,0,1,.1,716.59Q0,577.24,0,437.87c0-29.92,11.84-52.76,38.6-67,41.34-22,96.23,7.12,98.8,53.89,2.16,39.44.89,79.07,1.1,118.61C138.56,555,138.51,566.69,138.51,578.34Z"/></g></svg>